<svg xmlns="http://www.w3.org/2000/svg" xmlns:cc="http://web.resource.org/cc/" xmlns:svg="http://www.w3.org/2000/svg" xmlns:xlink="http://www.w3.org/1999/xlink" id="svg2" width="48" height="48" version="1.0"><defs id="defs4"><linearGradient id="linearGradient2911"><stop style="stop-color:white;stop-opacity:1" id="stop2913" offset="0"/><stop style="stop-color:white;stop-opacity:0" id="stop2915" offset="1"/></linearGradient><linearGradient id="linearGradient2903"><stop style="stop-color:white;stop-opacity:1" id="stop2905" offset="0"/><stop style="stop-color:white;stop-opacity:0" id="stop2907" offset="1"/></linearGradient><linearGradient id="linearGradient2879"><stop style="stop-color:#c8cec3;stop-opacity:1" id="stop2881" offset="0"/><stop style="stop-color:white;stop-opacity:1" id="stop2883" offset="1"/></linearGradient><linearGradient id="linearGradient2871"><stop style="stop-color:white;stop-opacity:1" id="stop2873" offset="0"/><stop style="stop-color:white;stop-opacity:0" id="stop2875" offset="1"/></linearGradient><linearGradient id="linearGradient2852"><stop style="stop-color:black;stop-opacity:1" id="stop2854" offset="0"/><stop id="stop2816" offset=".795" style="stop-color:black;stop-opacity:.49803922"/><stop style="stop-color:black;stop-opacity:0" id="stop2856" offset="1"/></linearGradient><linearGradient id="linearGradient2842"><stop style="stop-color:#2e3436;stop-opacity:1" id="stop2844" offset="0"/><stop style="stop-color:#555753;stop-opacity:1" id="stop2846" offset="1"/></linearGradient><linearGradient id="linearGradient2826"><stop style="stop-color:#2e3436;stop-opacity:1" id="stop2828" offset="0"/><stop style="stop-color:#555753;stop-opacity:1" id="stop2830" offset="1"/></linearGradient><linearGradient id="linearGradient2804"><stop style="stop-color:#eeeeec;stop-opacity:1" id="stop2806" offset="0"/><stop style="stop-color:#2e3436;stop-opacity:1" id="stop2808" offset="1"/></linearGradient><linearGradient id="linearGradient2792"><stop style="stop-color:white;stop-opacity:1" id="stop2794" offset="0"/><stop style="stop-color:#d3d7cf;stop-opacity:1" id="stop2796" offset="1"/></linearGradient><linearGradient id="linearGradient2778"><stop style="stop-color:#d3d7cf;stop-opacity:1" id="stop2780" offset="0"/><stop style="stop-color:#555753;stop-opacity:1" id="stop2782" offset="1"/></linearGradient><radialGradient id="radialGradient2858" cx="15.777" cy="17.018" r="13.479" fx="15.777" fy="17.018" gradientUnits="userSpaceOnUse" xlink:href="#linearGradient2852"/><radialGradient id="radialGradient1956" cx="7.731" cy="6.922" r="13.979" fx="7.731" fy="6.922" gradientTransform="matrix(1.715326,0,-1.462351e-6,1.368654,-5.935835,-2.694826)" gradientUnits="userSpaceOnUse" xlink:href="#linearGradient2778"/><linearGradient id="linearGradient1958" x1="5.111" x2="-1.169" y1="25.435" y2="4.555" gradientUnits="userSpaceOnUse" xlink:href="#linearGradient2826"/><radialGradient id="radialGradient1960" cx="16.962" cy="23.891" r="14.065" fx="16.962" fy="23.891" gradientTransform="matrix(2.57113,1.6738e-6,0,2.461325,-24.47562,-35.11938)" gradientUnits="userSpaceOnUse" xlink:href="#linearGradient2792"/><linearGradient id="linearGradient1962" x1="6.764" x2="31.357" y1="6.689" y2="40.582" gradientUnits="userSpaceOnUse" xlink:href="#linearGradient2842"/><linearGradient id="linearGradient2877" x1="7.569" x2="21.277" y1="5.338" y2="35.819" gradientUnits="userSpaceOnUse" xlink:href="#linearGradient2871"/><linearGradient id="linearGradient2885" x1="12.584" x2="14.317" y1="7.911" y2="14.704" gradientUnits="userSpaceOnUse" xlink:href="#linearGradient2879"/><radialGradient id="radialGradient2893" cx="15.618" cy="14.602" r=".994" fx="15.618" fy="14.602" gradientTransform="matrix(2.320612,0,-1.917177e-6,1.657106,-20.62529,-9.557977)" gradientUnits="userSpaceOnUse" xlink:href="#linearGradient2804"/><linearGradient id="linearGradient2909" x1="24.313" x2="17.938" y1="20" y2="28.438" gradientUnits="userSpaceOnUse" xlink:href="#linearGradient2903"/><linearGradient id="linearGradient2917" x1="18.75" x2="28" y1="21.063" y2="26.125" gradientUnits="userSpaceOnUse" xlink:href="#linearGradient2911"/></defs><metadata id="metadata7"/><g id="layer1"><g id="g1902" transform="translate(8.5,10)" style="opacity:.2"><path id="path1898" d="M 15,14 L 23,7 L 17,16 L 13,18 L 15,14 z" style="fill:#000;fill-opacity:1;fill-rule:evenodd;stroke:none;stroke-width:1px;stroke-linecap:butt;stroke-linejoin:miter;stroke-opacity:1"/><path id="path1900" d="M 15,16 L 21,20 L 17,14 L 13,12 L 15,16 z" style="fill:#000;fill-opacity:1;fill-rule:evenodd;stroke:none;stroke-width:1px;stroke-linecap:butt;stroke-linejoin:miter;stroke-opacity:1"/></g><path style="opacity:1;fill:url(#radialGradient2858);fill-opacity:1;stroke:none;stroke-width:1;stroke-linecap:round;stroke-linejoin:miter;stroke-miterlimit:4;stroke-dasharray:none;stroke-opacity:1" id="path2850" d="M 29.256543 17.018175 A 13.479223 13.479223 0 1 1 2.2980967,17.018175 A 13.479223 13.479223 0 1 1 29.256543 17.018175 z" transform="matrix(-1.683737,0,0,1.696129,50.76034,-4.50252)"/><path style="fill:url(#radialGradient1956);fill-opacity:1;stroke:url(#linearGradient1958);stroke-width:.62724388;stroke-linecap:round;stroke-linejoin:miter;stroke-miterlimit:4;stroke-dasharray:none;stroke-opacity:1" id="path1862" d="M 29.256543 17.018175 A 13.479223 13.479223 0 1 1 2.2980967,17.018175 A 13.479223 13.479223 0 1 1 29.256543 17.018175 z" transform="matrix(1.595047,0,0,1.593506,-1.165574,-4.097785)"/><path style="fill:url(#radialGradient1960);fill-opacity:1;stroke:url(#linearGradient1962);stroke-width:.72860712;stroke-linecap:round;stroke-linejoin:miter;stroke-miterlimit:4;stroke-dasharray:none;stroke-opacity:1" id="path2752" d="M 29.256543 17.018175 A 13.479223 13.479223 0 1 1 2.2980967,17.018175 A 13.479223 13.479223 0 1 1 29.256543 17.018175 z" transform="matrix(1.372483,0,0,1.372483,2.345902,-0.357151)"/><path style="opacity:.2;fill:#000;fill-opacity:1;fill-rule:evenodd;stroke:none;stroke-width:1px;stroke-linecap:butt;stroke-linejoin:miter;stroke-opacity:1" id="path1970" d="M 35.5,13 L 24.28125,23.28125 L 20.5,21 L 22.90625,25 L 20.5,29 L 24.375,26.6875 L 32.5,33 L 26.28125,25 L 35.5,13 z"/><path style="fill:none;fill-opacity:1;stroke:url(#linearGradient2885);stroke-width:.2239774;stroke-linecap:round;stroke-linejoin:miter;stroke-miterlimit:4;stroke-dasharray:none;stroke-opacity:1" id="path2790" d="M 17.5625 10.75 A 3.5625 4.3125 0 1 1 10.4375,10.75 A 3.5625 4.3125 0 1 1 17.5625 10.75 z" transform="matrix(4.912278,0,0,4.057969,-44.77189,-20.62317)"/><g id="g2897" transform="translate(4,0)"><path id="path2802" d="M 19,24 L 28,31 L 21,22 L 16,19 L 19,24 z" style="fill:#000;fill-opacity:1;fill-rule:evenodd;stroke:none;stroke-width:1px;stroke-linecap:butt;stroke-linejoin:miter;stroke-opacity:1"/><path id="path2895" d="M 28,31 L 21,22 L 16,19 L 28,31 z" style="fill:url(#linearGradient2917);fill-opacity:1;fill-rule:evenodd;stroke:none;stroke-width:1px;stroke-linecap:butt;stroke-linejoin:miter;stroke-opacity:1;opacity:.3"/></g><path style="fill:#000;fill-opacity:1;fill-rule:evenodd;stroke:none;stroke-width:1px;stroke-linecap:butt;stroke-linejoin:miter;stroke-opacity:1" id="path2800" d="M 23,22 L 35,11 L 25,24 L 20,27 L 23,22 z"/><path style="fill:url(#linearGradient2909);fill-opacity:1;fill-rule:evenodd;stroke:none;stroke-width:1px;stroke-linecap:butt;stroke-linejoin:miter;stroke-opacity:1;opacity:.3" id="path2887" d="M 23,22 L 35,11 L 20,27 L 23,22 z"/><path style="fill:url(#radialGradient2893);fill-opacity:1;stroke:#000;stroke-width:.57145953;stroke-linecap:round;stroke-linejoin:miter;stroke-miterlimit:4;stroke-dasharray:none;stroke-opacity:1" id="path2901" d="M 17.191533 15.16202 A 0.99436891 0.92807764 0 1 1 15.202796,15.16202 A 0.99436891 0.92807764 0 1 1 17.191533 15.16202 z" transform="matrix(1.022222,0,0,1.078416,7.44119,6.649885)"/><path style="fill:url(#radialGradient2893);fill-opacity:1;stroke:none;stroke-width:1;stroke-linecap:round;stroke-linejoin:miter;stroke-miterlimit:4;stroke-dasharray:none;stroke-opacity:1" id="path2786" d="M 17.191533 15.16202 A 0.99436891 0.92807764 0 1 1 15.202796,15.16202 A 0.99436891 0.92807764 0 1 1 17.191533 15.16202 z" transform="matrix(1.022222,0,0,1.078416,7.44119,6.649885)"/><path style="fill:#eeeeec;fill-opacity:1;stroke:none;stroke-width:1;stroke-linecap:round;stroke-linejoin:miter;stroke-miterlimit:4;stroke-dasharray:none;stroke-opacity:1" id="path2812" d="M 16 14.5 A 0.5 0.5 0 1 1 15,14.5 A 0.5 0.5 0 1 1 16 14.5 z" transform="translate(8,8)"/><path style="fill:none;fill-opacity:1;stroke:url(#linearGradient2877);stroke-width:.65695292;stroke-linecap:round;stroke-linejoin:miter;stroke-miterlimit:4;stroke-dasharray:none;stroke-opacity:1;opacity:.6" id="path2865" d="M 29.256543 17.018175 A 13.479223 13.479223 0 1 1 2.2980967,17.018175 A 13.479223 13.479223 0 1 1 29.256543 17.018175 z" transform="matrix(1.522916,0,0,1.521443,-2.753783e-2,-2.871404)"/></g></svg>