<svg xmlns="http://www.w3.org/2000/svg" xmlns:cc="http://web.resource.org/cc/" xmlns:svg="http://www.w3.org/2000/svg" xmlns:xlink="http://www.w3.org/1999/xlink" id="svg2" width="48" height="48" version="1.0"><defs id="defs4"><linearGradient id="linearGradient3690"><stop style="stop-color:white;stop-opacity:1" id="stop3692" offset="0"/><stop style="stop-color:white;stop-opacity:.46875" id="stop3694" offset="1"/></linearGradient><linearGradient id="linearGradient3674"><stop style="stop-color:#3465a4;stop-opacity:1" id="stop3676" offset="0"/><stop style="stop-color:#729fcf;stop-opacity:1" id="stop3678" offset="1"/></linearGradient><linearGradient id="linearGradient2781"><stop style="stop-color:#d3d7cf;stop-opacity:1" id="stop2783" offset="0"/><stop style="stop-color:#eeeeec;stop-opacity:1" id="stop2785" offset="1"/></linearGradient><linearGradient id="linearGradient2787" x1="24.926" x2="24.926" y1="40" y2="19.539" gradientTransform="translate(-1,0)" gradientUnits="userSpaceOnUse" xlink:href="#linearGradient2781"/><linearGradient id="linearGradient3696" x1="9.5" x2="9.5" y1="16.264" y2="13.409" gradientTransform="translate(-1,0)" gradientUnits="userSpaceOnUse" xlink:href="#linearGradient3690"/><linearGradient id="linearGradient5048"><stop id="stop5050" offset="0" style="stop-color:black;stop-opacity:0"/><stop style="stop-color:black;stop-opacity:1" id="stop5056" offset=".5"/><stop id="stop5052" offset="1" style="stop-color:black;stop-opacity:0"/></linearGradient><linearGradient id="linearGradient5060"><stop id="stop5062" offset="0" style="stop-color:black;stop-opacity:1"/><stop id="stop5064" offset="1" style="stop-color:black;stop-opacity:0"/></linearGradient><linearGradient id="linearGradient3843" x1="302.857" x2="302.857" y1="366.648" y2="609.505" gradientTransform="matrix(2.774389,0,0,1.969706,-1892.179,-872.8854)" gradientUnits="userSpaceOnUse" xlink:href="#linearGradient5048"/><radialGradient id="radialGradient3845" cx="605.714" cy="486.648" r="117.143" fx="605.714" fy="486.648" gradientTransform="matrix(2.774389,0,0,1.969706,-1891.633,-872.8854)" gradientUnits="userSpaceOnUse" xlink:href="#linearGradient5060"/><radialGradient id="radialGradient3847" cx="605.714" cy="486.648" r="117.143" fx="605.714" fy="486.648" gradientTransform="matrix(-2.774389,0,0,1.969706,112.7623,-872.8854)" gradientUnits="userSpaceOnUse" xlink:href="#linearGradient5060"/><linearGradient id="linearGradient2992" x1="23.069" x2="23.069" y1="6.799" y2="12.403" gradientTransform="translate(-1,0)" gradientUnits="userSpaceOnUse" xlink:href="#linearGradient3674"/><linearGradient id="linearGradient3007" x1="302.857" x2="302.857" y1="366.648" y2="609.505" gradientTransform="matrix(2.774389,0,0,1.969706,-1892.179,-872.8854)" gradientUnits="userSpaceOnUse" xlink:href="#linearGradient5048"/><radialGradient id="radialGradient3009" cx="605.714" cy="486.648" r="117.143" fx="605.714" fy="486.648" gradientTransform="matrix(2.774389,0,0,1.969706,-1891.633,-872.8854)" gradientUnits="userSpaceOnUse" xlink:href="#linearGradient5060"/><radialGradient id="radialGradient3011" cx="605.714" cy="486.648" r="117.143" fx="605.714" fy="486.648" gradientTransform="matrix(-2.774389,0,0,1.969706,112.7623,-872.8854)" gradientUnits="userSpaceOnUse" xlink:href="#linearGradient5060"/></defs><metadata id="metadata7"/><g id="layer1"><g style="opacity:.58730164;display:inline" id="g5022" transform="matrix(1.231264e-2,0,0,1.254292e-2,26.4513,37.39018)"><rect id="rect4173" width="1339.633" height="478.357" x="-1559.252" y="-150.697" style="opacity:.40206185;color:#000;fill:url(#linearGradient3843);fill-opacity:1;fill-rule:nonzero;stroke:none;stroke-width:1;stroke-linecap:round;stroke-linejoin:miter;marker:none;marker-start:none;marker-mid:none;marker-end:none;stroke-miterlimit:4;stroke-dasharray:none;stroke-dashoffset:0;stroke-opacity:1;visibility:visible;display:inline;overflow:visible"/><path id="path5058" d="M -219.61876,-150.68038 C -219.61876,-150.68038 -219.61876,327.65041 -219.61876,327.65041 C -76.744594,328.55086 125.78146,220.48075 125.78138,88.454235 C 125.78138,-43.572302 -33.655436,-150.68036 -219.61876,-150.68038 z" style="opacity:.40206185;color:#000;fill:url(#radialGradient3845);fill-opacity:1;fill-rule:nonzero;stroke:none;stroke-width:1;stroke-linecap:round;stroke-linejoin:miter;marker:none;marker-start:none;marker-mid:none;marker-end:none;stroke-miterlimit:4;stroke-dasharray:none;stroke-dashoffset:0;stroke-opacity:1;visibility:visible;display:inline;overflow:visible"/><path style="opacity:.40206185;color:#000;fill:url(#radialGradient3847);fill-opacity:1;fill-rule:nonzero;stroke:none;stroke-width:1;stroke-linecap:round;stroke-linejoin:miter;marker:none;marker-start:none;marker-mid:none;marker-end:none;stroke-miterlimit:4;stroke-dasharray:none;stroke-dashoffset:0;stroke-opacity:1;visibility:visible;display:inline;overflow:visible" id="path5018" d="M -1559.2523,-150.68038 C -1559.2523,-150.68038 -1559.2523,327.65041 -1559.2523,327.65041 C -1702.1265,328.55086 -1904.6525,220.48075 -1904.6525,88.454235 C -1904.6525,-43.572302 -1745.2157,-150.68036 -1559.2523,-150.68038 z"/></g><g style="opacity:.58730164;display:inline" id="g2999" transform="matrix(8.8651e-3,0,0,1.254292e-2,43.88494,37.39018)"><rect id="rect3001" width="1339.633" height="478.357" x="-1559.252" y="-150.697" style="opacity:.40206185;color:#000;fill:url(#linearGradient3007);fill-opacity:1;fill-rule:nonzero;stroke:none;stroke-width:1;stroke-linecap:round;stroke-linejoin:miter;marker:none;marker-start:none;marker-mid:none;marker-end:none;stroke-miterlimit:4;stroke-dasharray:none;stroke-dashoffset:0;stroke-opacity:1;visibility:visible;display:inline;overflow:visible"/><path id="path3003" d="M -219.61876,-150.68038 C -219.61876,-150.68038 -219.61876,327.65041 -219.61876,327.65041 C -76.744594,328.55086 125.78146,220.48075 125.78138,88.454235 C 125.78138,-43.572302 -33.655436,-150.68036 -219.61876,-150.68038 z" style="opacity:.40206185;color:#000;fill:url(#radialGradient3009);fill-opacity:1;fill-rule:nonzero;stroke:none;stroke-width:1;stroke-linecap:round;stroke-linejoin:miter;marker:none;marker-start:none;marker-mid:none;marker-end:none;stroke-miterlimit:4;stroke-dasharray:none;stroke-dashoffset:0;stroke-opacity:1;visibility:visible;display:inline;overflow:visible"/><path style="opacity:.40206185;color:#000;fill:url(#radialGradient3011);fill-opacity:1;fill-rule:nonzero;stroke:none;stroke-width:1;stroke-linecap:round;stroke-linejoin:miter;marker:none;marker-start:none;marker-mid:none;marker-end:none;stroke-miterlimit:4;stroke-dasharray:none;stroke-dashoffset:0;stroke-opacity:1;visibility:visible;display:inline;overflow:visible" id="path3005" d="M -1559.2523,-150.68038 C -1559.2523,-150.68038 -1559.2523,327.65041 -1559.2523,327.65041 C -1702.1265,328.55086 -1904.6525,220.48075 -1904.6525,88.454235 C -1904.6525,-43.572302 -1745.2157,-150.68036 -1559.2523,-150.68038 z"/></g><path style="fill:url(#linearGradient2787);fill-opacity:1;stroke:#888a85;stroke-width:1.00000024;stroke-miterlimit:4;stroke-opacity:1" id="rect1887" d="M 7.5 9 C 6.392 9 5.5 9.892 5.5 11 L 5.5 37.5 C 5.5 38.608 6.392 39.5 7.5 39.5 L 26.34375 39.5 L 22.53125 34.0625 L 21.71875 32.9375 L 22.78125 32.0625 L 29.46875 26.5 L 15.34375 19.15625 L 13.4375 18.15625 L 15.03125 16.71875 L 23.59375 9 L 7.5 9 z M 28.09375 9 L 18.65625 17.5 L 32.84375 24.875 L 34.84375 25.90625 L 33.125 27.375 L 25.75 33.46875 L 29.96875 39.5 L 40.5 39.5 C 41.608 39.5 42.5 38.608 42.5 37.5 L 42.5 11 C 42.5 9.892 41.608 9 40.5 9 L 28.09375 9 z"/><path style="fill:url(#linearGradient2992);fill-opacity:1;stroke:#204a87;stroke-width:1.00000048;stroke-miterlimit:4;stroke-opacity:1;stroke-linecap:round" id="rect2776" d="M 42.5,14.03125 L 42.5,10.5 C 42.5,9.3919998 41.607999,8.5 40.5,8.5 L 28.65625,8.5 L 22.5,14.03125 M 18,14.03125 L 24.15625,8.5 L 7.5,8.5 C 6.392,8.5 5.5,9.392 5.5,10.5 L 5.5,14.03125"/><path style="opacity:.8;fill:none;fill-opacity:1;stroke:url(#linearGradient3696);stroke-width:1.00000083;stroke-miterlimit:4;stroke-opacity:1" id="rect2779" d="M 7.5 9.5 C 6.9485534 9.5 6.5 9.9485525 6.5 10.5 L 6.5 37.5 C 6.5 38.051447 6.9485534 38.5 7.5 38.5 L 24.4375 38.5 L 21.71875 34.625 L 20.375 32.75 L 22.15625 31.28125 L 27.65625 26.6875 L 14.90625 20.03125 L 11.6875 18.375 L 14.375 15.96875 L 21.5625 9.5 L 7.5 9.5 z M 29.03125 9.5 L 20.40625 17.25 L 33.3125 24 L 36.65625 25.71875 L 33.75 28.125 L 27.125 33.65625 L 30.53125 38.5 L 40.5 38.5 C 41.051446 38.5 41.5 38.051448 41.5 37.5 L 41.5 10.5 C 41.5 9.948553 41.051447 9.5 40.5 9.5 L 29.03125 9.5 z"/></g></svg>