<svg xmlns="http://www.w3.org/2000/svg" xmlns:cc="http://web.resource.org/cc/" xmlns:svg="http://www.w3.org/2000/svg" xmlns:xlink="http://www.w3.org/1999/xlink" id="svg2285" width="48" height="48"><defs id="defs2287"><linearGradient id="linearGradient2250"><stop id="stop2252" offset="0" style="stop-color:#fff;stop-opacity:0"/><stop style="stop-color:#fff;stop-opacity:1" id="stop2254" offset=".1"/><stop id="stop2256" offset=".76" style="stop-color:#fff;stop-opacity:1"/><stop id="stop2258" offset="1" style="stop-color:#fff;stop-opacity:0"/></linearGradient><linearGradient id="linearGradient2258"><stop style="stop-color:#fff;stop-opacity:0" id="stop2260" offset="0"/><stop id="stop2266" offset=".05" style="stop-color:#d3d7cf;stop-opacity:1"/><stop style="stop-color:#d3d7cf;stop-opacity:1" id="stop2268" offset=".8"/><stop style="stop-color:#fff;stop-opacity:0" id="stop2262" offset="1"/></linearGradient><linearGradient id="linearGradient2249"><stop style="stop-color:#000;stop-opacity:1" id="stop2251" offset="0"/><stop style="stop-color:#000;stop-opacity:0" id="stop2253" offset="1"/></linearGradient><linearGradient id="linearGradient2228"><stop style="stop-color:#babdb6;stop-opacity:0" id="stop2230" offset="0"/><stop id="stop2236" offset=".1" style="stop-color:#babdb6;stop-opacity:1"/><stop style="stop-color:#babdb6;stop-opacity:1" id="stop2238" offset=".75"/><stop style="stop-color:#bbbeb7;stop-opacity:0" id="stop2232" offset="1"/></linearGradient><linearGradient id="linearGradient2215"><stop style="stop-color:#555753;stop-opacity:0" id="stop2217" offset="0"/><stop id="stop2223" offset=".1" style="stop-color:#555753;stop-opacity:1"/><stop style="stop-color:#555753;stop-opacity:1" id="stop2225" offset=".75"/><stop style="stop-color:#555753;stop-opacity:0" id="stop2219" offset="1"/></linearGradient><linearGradient id="linearGradient2221" x1="1.813" x2="46.164" y1="36.364" y2="36.364" gradientTransform="matrix(1.043004,0,0,1.004318,-1.032297,-6.023254)" gradientUnits="userSpaceOnUse" xlink:href="#linearGradient2215"/><linearGradient id="linearGradient2234" x1=".859" x2="46.056" y1="36.364" y2="36.364" gradientTransform="matrix(1,0,0,1.004318,0,-6.023254)" gradientUnits="userSpaceOnUse" xlink:href="#linearGradient2228"/><linearGradient id="linearGradient2247" x1="1.281" x2="46.658" y1="42.998" y2="42.998" gradientTransform="translate(0,-6)" gradientUnits="userSpaceOnUse" xlink:href="#linearGradient2215"/><linearGradient id="linearGradient2255" x1="31.483" x2="45.824" y1="36.75" y2="36.75" gradientTransform="matrix(0.904762,0,0,1,4.571429,-6)" gradientUnits="userSpaceOnUse" xlink:href="#linearGradient2249"/><linearGradient id="linearGradient2276" x1="1.029" x2="46.939" y1="36.379" y2="36.556" gradientTransform="translate(0,-6)" gradientUnits="userSpaceOnUse" xlink:href="#linearGradient2250"/><linearGradient id="linearGradient2245" x1="3.054" x2="44.166" y1="36.498" y2="36.498" gradientTransform="translate(0,-6)" gradientUnits="userSpaceOnUse" xlink:href="#linearGradient2258"/><linearGradient id="linearGradient2260" x1="1.813" x2="46.164" y1="36.364" y2="36.364" gradientTransform="matrix(1.043004,0,0,1.004318,-1.032297,-6.023254)" gradientUnits="userSpaceOnUse" xlink:href="#linearGradient2250"/></defs><metadata id="metadata2290"/><g id="layer1"><rect style="opacity:1;fill:url(#linearGradient2234);fill-opacity:1;stroke:url(#linearGradient2221);stroke-width:1.00000048;stroke-linecap:butt;stroke-linejoin:round;stroke-miterlimit:4;stroke-dasharray:none;stroke-dashoffset:0;stroke-opacity:1" id="rect3734" width="47.055" height="23.969" x=".522" y="18.513" rx="0" ry="0"/><path style="fill:url(#linearGradient2245);fill-opacity:1;stroke:url(#linearGradient2247);stroke-width:.99999988;stroke-linecap:butt;stroke-linejoin:round;stroke-miterlimit:4;stroke-dashoffset:0;stroke-opacity:1" id="rect3762" d="M 0.53125,21.545685 L 0.53125,39.533841 L 7.1875,39.533841 C 7.3239085,39.533841 7.4702395,39.50995 7.59375,39.471341 C 7.7871883,39.405538 7.9840671,39.269827 8.125,39.127591 C 8.1901439,39.058618 8.2632516,38.959561 8.3125,38.877591 C 8.4229364,38.683316 8.5,38.431013 8.5,38.190091 L 8.5,22.889435 C 8.5,22.648513 8.4229364,22.396209 8.3125,22.201935 C 8.2632516,22.119965 8.1901439,22.020908 8.125,21.951935 C 7.9840672,21.809699 7.7871883,21.673988 7.59375,21.608185 C 7.4702395,21.569576 7.3239084,21.545685 7.1875,21.545685 L 0.53125,21.545685 z M 11.65625,21.545685 C 11.579398,21.555488 11.478298,21.585663 11.40625,21.608185 C 11.212812,21.673988 11.015933,21.809699 10.875,21.951935 C 10.809856,22.020908 10.736748,22.119965 10.6875,22.201935 C 10.577064,22.396209 10.5,22.648513 10.5,22.889435 L 10.5,38.190091 C 10.5,38.431013 10.577064,38.683317 10.6875,38.877591 C 10.736748,38.959561 10.809856,39.058618 10.875,39.127591 C 11.015933,39.269827 11.212812,39.405538 11.40625,39.471341 C 11.529761,39.50995 11.676091,39.533841 11.8125,39.533841 L 47.46875,39.533841 L 47.46875,21.545685 L 11.8125,21.545685 C 11.755663,21.545685 11.711144,21.538683 11.65625,21.545685 z"/><path style="opacity:.90980392;fill:none;fill-opacity:1;stroke:url(#linearGradient2276);stroke-width:.99999952;stroke-linecap:butt;stroke-linejoin:round;stroke-miterlimit:4;stroke-dashoffset:0;stroke-opacity:1" id="rect3736" d="M 0.46875,22.562712 L 0.46875,38.454315 L 6.875,38.454315 C 6.9694365,38.454315 7.0767266,38.430022 7.15625,38.391815 C 7.3022681,38.312689 7.4265303,38.150421 7.46875,37.985565 C 7.4767973,37.946039 7.5,37.902537 7.5,37.860565 L 7.5,23.187712 C 7.5,23.009332 7.403116,22.829679 7.28125,22.718962 C 7.2513391,22.694298 7.1906072,22.64383 7.15625,22.625212 C 7.0767266,22.587005 6.9694366,22.562712 6.875,22.562712 L 0.46875,22.562712 z M 12,22.562712 C 11.929628,22.573405 11.841375,22.623881 11.78125,22.656462 C 11.75626,22.671615 11.709933,22.700464 11.6875,22.718962 C 11.673163,22.731988 11.638026,22.767125 11.625,22.781462 C 11.606502,22.803895 11.577653,22.850222 11.5625,22.875212 C 11.515956,22.961105 11.46875,23.082783 11.46875,23.187712 L 11.46875,37.860565 C 11.46875,37.91303 11.487582,37.968328 11.5,38.016815 C 11.517656,38.07382 11.561138,38.155964 11.59375,38.204315 C 11.704082,38.352028 11.894383,38.454315 12.09375,38.454315 L 47.5,38.454315 L 47.5,22.562712 L 12.09375,22.562712 C 12.062271,22.562712 12.030159,22.558129 12,22.562712 z"/><g id="g1374" transform="translate(1,-3.9375)"><rect id="rect3746" width="10.959" height="10.019" x="13.538" y="29.502" rx="1.313" ry="1.313" style="opacity:1;fill:#eeeeec;fill-opacity:1;stroke:#888a85;stroke-width:1.00000036;stroke-linecap:round;stroke-linejoin:round;stroke-miterlimit:4;stroke-dasharray:none;stroke-dashoffset:0;stroke-opacity:1"/><rect id="rect2262" width="8.838" height="7.986" x="14.599" y="30.474" rx="0" ry="0" style="opacity:1;fill:none;fill-opacity:1;stroke:#fff;stroke-width:1.00000036;stroke-linecap:round;stroke-linejoin:round;stroke-miterlimit:4;stroke-dasharray:none;stroke-dashoffset:0;stroke-opacity:1"/><rect id="rect3748" width="11" height="3.125" x="13.5" y="29.438" rx="1.313" ry="1.313" style="opacity:1;fill:#729fcf;fill-opacity:1;stroke:#204a87;stroke-width:1;stroke-linecap:round;stroke-linejoin:round;stroke-miterlimit:4;stroke-dasharray:none;stroke-dashoffset:0;stroke-opacity:1"/></g><rect style="opacity:.14509804;fill:url(#linearGradient2255);fill-opacity:1;stroke:none;stroke-width:1;stroke-linecap:round;stroke-linejoin:round;stroke-miterlimit:4;stroke-dasharray:none;stroke-dashoffset:0;stroke-opacity:1" id="rect3752" width="19" height="5" x="29" y="28" rx=".563" ry=".563"/><rect style="opacity:.6745098;fill:none;fill-opacity:1;stroke:url(#linearGradient2260);stroke-width:1.00000048;stroke-linecap:butt;stroke-linejoin:round;stroke-miterlimit:4;stroke-dasharray:none;stroke-dashoffset:0;stroke-opacity:1" id="rect2247" width="47.591" height="22" x=".409" y="19.51" rx="0" ry="0"/></g></svg>