<svg xmlns="http://www.w3.org/2000/svg" xmlns:cc="http://web.resource.org/cc/" xmlns:svg="http://www.w3.org/2000/svg" xmlns:xlink="http://www.w3.org/1999/xlink" id="svg2" width="48" height="48" version="1.0"><defs id="defs4"><linearGradient id="linearGradient3690"><stop style="stop-color:white;stop-opacity:1" id="stop3692" offset="0"/><stop style="stop-color:white;stop-opacity:.46875" id="stop3694" offset="1"/></linearGradient><linearGradient id="linearGradient3674"><stop style="stop-color:#3465a4;stop-opacity:1" id="stop3676" offset="0"/><stop style="stop-color:#729fcf;stop-opacity:1" id="stop3678" offset="1"/></linearGradient><linearGradient id="linearGradient2781"><stop style="stop-color:#d3d7cf;stop-opacity:1" id="stop2783" offset="0"/><stop style="stop-color:#eeeeec;stop-opacity:1" id="stop2785" offset="1"/></linearGradient><linearGradient id="linearGradient2787" x1="24.926" x2="24.926" y1="40" y2="19.539" gradientTransform="translate(3,3)" gradientUnits="userSpaceOnUse" xlink:href="#linearGradient2781"/><linearGradient id="linearGradient3680" x1="23.069" x2="23.069" y1="6.799" y2="12.403" gradientTransform="translate(3,3)" gradientUnits="userSpaceOnUse" xlink:href="#linearGradient3674"/><linearGradient id="linearGradient3696" x1="9.5" x2="9.5" y1="16.264" y2="13.409" gradientTransform="translate(3,3)" gradientUnits="userSpaceOnUse" xlink:href="#linearGradient3690"/><linearGradient id="linearGradient5048"><stop id="stop5050" offset="0" style="stop-color:black;stop-opacity:0"/><stop style="stop-color:black;stop-opacity:1" id="stop5056" offset=".5"/><stop id="stop5052" offset="1" style="stop-color:black;stop-opacity:0"/></linearGradient><linearGradient id="linearGradient5060"><stop id="stop5062" offset="0" style="stop-color:black;stop-opacity:1"/><stop id="stop5064" offset="1" style="stop-color:black;stop-opacity:0"/></linearGradient><linearGradient id="linearGradient3843" x1="302.857" x2="302.857" y1="366.648" y2="609.505" gradientTransform="matrix(2.774389,0,0,1.969706,-1892.179,-872.8854)" gradientUnits="userSpaceOnUse" xlink:href="#linearGradient5048"/><radialGradient id="radialGradient3845" cx="605.714" cy="486.648" r="117.143" fx="605.714" fy="486.648" gradientTransform="matrix(2.774389,0,0,1.969706,-1891.633,-872.8854)" gradientUnits="userSpaceOnUse" xlink:href="#linearGradient5060"/><radialGradient id="radialGradient3847" cx="605.714" cy="486.648" r="117.143" fx="605.714" fy="486.648" gradientTransform="matrix(-2.774389,0,0,1.969706,112.7623,-872.8854)" gradientUnits="userSpaceOnUse" xlink:href="#linearGradient5060"/><linearGradient id="linearGradient1911" x1="24.926" x2="24.926" y1="40" y2="19.539" gradientTransform="translate(3,3)" gradientUnits="userSpaceOnUse" xlink:href="#linearGradient2781"/><linearGradient id="linearGradient1913" x1="23.069" x2="23.069" y1="6.799" y2="13.102" gradientTransform="translate(3,3)" gradientUnits="userSpaceOnUse" xlink:href="#linearGradient3674"/><linearGradient id="linearGradient1915" x1="9.5" x2="9.5" y1="16.264" y2="13.409" gradientTransform="translate(3,3)" gradientUnits="userSpaceOnUse" xlink:href="#linearGradient3690"/></defs><metadata id="metadata7"/><g id="layer1"><g style="opacity:.58730164;display:inline" id="g5022" transform="matrix(2.019273e-2,0,0,1.254292e-2,45.96013,40.39018)"><rect id="rect4173" width="1339.633" height="478.357" x="-1559.252" y="-150.697" style="opacity:.40206185;color:#000;fill:url(#linearGradient3843);fill-opacity:1;fill-rule:nonzero;stroke:none;stroke-width:1;stroke-linecap:round;stroke-linejoin:miter;marker:none;marker-start:none;marker-mid:none;marker-end:none;stroke-miterlimit:4;stroke-dasharray:none;stroke-dashoffset:0;stroke-opacity:1;visibility:visible;display:inline;overflow:visible"/><path id="path5058" d="M -219.61876,-150.68038 C -219.61876,-150.68038 -219.61876,327.65041 -219.61876,327.65041 C -76.744594,328.55086 125.78146,220.48075 125.78138,88.454235 C 125.78138,-43.572302 -33.655436,-150.68036 -219.61876,-150.68038 z" style="opacity:.40206185;color:#000;fill:url(#radialGradient3845);fill-opacity:1;fill-rule:nonzero;stroke:none;stroke-width:1;stroke-linecap:round;stroke-linejoin:miter;marker:none;marker-start:none;marker-mid:none;marker-end:none;stroke-miterlimit:4;stroke-dasharray:none;stroke-dashoffset:0;stroke-opacity:1;visibility:visible;display:inline;overflow:visible"/><path style="opacity:.40206185;color:#000;fill:url(#radialGradient3847);fill-opacity:1;fill-rule:nonzero;stroke:none;stroke-width:1;stroke-linecap:round;stroke-linejoin:miter;marker:none;marker-start:none;marker-mid:none;marker-end:none;stroke-miterlimit:4;stroke-dasharray:none;stroke-dashoffset:0;stroke-opacity:1;visibility:visible;display:inline;overflow:visible" id="path5018" d="M -1559.2523,-150.68038 C -1559.2523,-150.68038 -1559.2523,327.65041 -1559.2523,327.65041 C -1702.1265,328.55086 -1904.6525,220.48075 -1904.6525,88.454235 C -1904.6525,-43.572302 -1745.2157,-150.68036 -1559.2523,-150.68038 z"/></g><g id="g1898"><rect id="rect1887" width="33" height="30.5" x="11.5" y="12" rx="2" ry="2" style="opacity:1;fill:url(#linearGradient2787);fill-opacity:1;stroke:#888a85;stroke-width:1.00000024;stroke-miterlimit:4;stroke-dasharray:none;stroke-opacity:1"/><path id="rect2776" d="M 11.499999,17.030334 L 11.499999,13.500005 C 11.499999,12.392005 12.391999,11.500005 13.499999,11.500005 L 42.499999,11.500005 C 43.607999,11.500005 44.499999,12.392005 44.499999,13.500005 L 44.499999,17.030334" style="fill:url(#linearGradient3680);fill-opacity:1;stroke:#204a87;stroke-width:1.00000048;stroke-miterlimit:4;stroke-opacity:1;stroke-linecap:round"/><rect id="rect2779" width="31" height="29" x="12.5" y="12.5" rx=".995" ry=".995" style="opacity:.8;fill:none;fill-opacity:1;stroke:url(#linearGradient3696);stroke-width:1.00000083;stroke-miterlimit:4;stroke-dasharray:none;stroke-opacity:1"/></g><g id="g1903" transform="translate(-10,-8)"><rect id="rect1905" width="33" height="30.5" x="11.5" y="12" rx="2" ry="2" style="opacity:1;fill:url(#linearGradient1911);fill-opacity:1;stroke:#888a85;stroke-width:1.00000024;stroke-miterlimit:4;stroke-dasharray:none;stroke-opacity:1"/><path id="path1907" d="M 11.499999,17.030334 L 11.499999,13.500005 C 11.499999,12.392005 12.391999,11.500005 13.499999,11.500005 L 42.499999,11.500005 C 43.607999,11.500005 44.499999,12.392005 44.499999,13.500005 L 44.499999,17.030334" style="fill:url(#linearGradient1913);fill-opacity:1;stroke:#204a87;stroke-width:1.00000048;stroke-miterlimit:4;stroke-opacity:1;stroke-linecap:round"/><rect id="rect1909" width="31" height="29" x="12.5" y="12.5" rx=".995" ry=".995" style="opacity:.8;fill:none;fill-opacity:1;stroke:url(#linearGradient1915);stroke-width:1.00000083;stroke-miterlimit:4;stroke-dasharray:none;stroke-opacity:1"/></g><path style="font-size:22.42351341px;font-style:normal;font-weight:700;fill:#888a85;fill-opacity:1;stroke:none;stroke-width:1px;stroke-linecap:butt;stroke-linejoin:miter;stroke-opacity:1;font-family:Bitstream Vera Sans" id="text1917" d="M 15.982439,25.00264 L 20.031229,25.00264 L 20.031229,29.00001 L 15.982439,29.00001 L 15.982439,25.00264"/><path style="font-size:22.42351341px;font-style:normal;font-weight:700;fill:#888a85;fill-opacity:1;stroke:none;stroke-width:1px;stroke-linecap:butt;stroke-linejoin:miter;stroke-opacity:1;font-family:Bitstream Vera Sans" id="path1922" d="M 20.031229,23 L 15.982439,23 L 15.982439,22.565945 C 15.982436,22.081699 16.10771,21.653549 16.358264,21.281497 C 16.608808,20.90355 17.01148,20.425204 17.81628,19.846458 L 18.545152,19.332678 C 18.977912,19.025599 19.292997,18.736229 19.490407,18.464568 C 19.695394,18.192923 19.797892,17.92127 19.7979,17.649607 C 19.797892,17.236231 19.615674,16.914381 19.251246,16.684056 C 18.886804,16.447847 17.878113,16.329736 17.225171,16.329724 C 16.610181,16.329736 15.945846,16.43013 15.232164,16.630906 C 14.518474,16.825799 13.774419,17.118121 12.999995,17.507875 L 12.999995,14.726379 C 13.918675,14.47836 14.757635,14.295289 15.516879,14.177166 C 16.276115,14.059069 17.008782,14.000014 17.714882,14 C 19.567422,14.000014 21.479609,14.295289 22.451447,14.885828 C 23.423264,15.470485 23.909177,16.326784 23.90919,17.454725 C 23.909177,18.033474 23.761126,18.553159 23.465034,19.01378 C 23.168918,19.468512 22.664024,19.958669 21.950348,20.484253 L 21.221476,20.989174 C 20.705184,21.355321 20.429822,21.650597 20.270389,21.875 C 20.110941,22.09351 20.031221,22.335635 20.031229,22.601378 L 20.031229,23"/></g></svg>