<svg xmlns="http://www.w3.org/2000/svg" xmlns:cc="http://web.resource.org/cc/" xmlns:svg="http://www.w3.org/2000/svg" xmlns:xlink="http://www.w3.org/1999/xlink" id="svg1325" width="48" height="48"><defs id="defs1327"><linearGradient id="linearGradient2783"><stop style="stop-color:#729fcf;stop-opacity:1" id="stop2785" offset="0"/><stop style="stop-color:#3465a4;stop-opacity:1" id="stop2787" offset="1"/></linearGradient><linearGradient id="linearGradient2270"><stop style="stop-color:#fff;stop-opacity:1" id="stop2272" offset="0"/><stop style="stop-color:#fff;stop-opacity:0" id="stop2274" offset="1"/></linearGradient><linearGradient id="linearGradient2262"><stop style="stop-color:#d3d7cf;stop-opacity:1" id="stop2264" offset="0"/><stop style="stop-color:#d3d7cf;stop-opacity:0" id="stop2266" offset="1"/></linearGradient><linearGradient id="linearGradient2252"><stop style="stop-color:#888a85;stop-opacity:1" id="stop2254" offset="0"/><stop style="stop-color:#888a85;stop-opacity:0" id="stop2256" offset="1"/></linearGradient><linearGradient id="linearGradient2258" x1="31.875" x2="47.438" y1="17.438" y2="17.438" gradientTransform="translate(0,-8)" gradientUnits="userSpaceOnUse" xlink:href="#linearGradient2252"/><linearGradient id="linearGradient2268" x1="31.873" x2="46.705" y1="20.688" y2="20.688" gradientTransform="translate(0,-8)" gradientUnits="userSpaceOnUse" xlink:href="#linearGradient2262"/><linearGradient id="linearGradient1341" x1="23.997" x2="45.754" y1="18.375" y2="18.375" gradientTransform="translate(0,-8)" gradientUnits="userSpaceOnUse" xlink:href="#linearGradient2270"/><radialGradient id="radialGradient2218" cx="3.624" cy="2.005" r="23" fx="3.624" fy="2.005" gradientTransform="matrix(1.246687e-8,1.125998,-1.627297,3.116107e-17,6.886624,6.5312)" gradientUnits="userSpaceOnUse" xlink:href="#linearGradient2270"/><radialGradient id="radialGradient2801" cx="34.375" cy="38.266" r="12.044" fx="34.375" fy="38.266" gradientTransform="matrix(1.53143,0,0,1.53143,-18.26764,-20.33562)" gradientUnits="userSpaceOnUse" xlink:href="#linearGradient2783"/></defs><metadata id="metadata1330"/><g id="layer1"><rect style="opacity:1;fill:url(#linearGradient2268);fill-opacity:1;stroke:url(#linearGradient2258);stroke-width:.99999952;stroke-linecap:butt;stroke-linejoin:round;stroke-miterlimit:4;stroke-dasharray:none;stroke-dashoffset:0;stroke-opacity:1" id="rect1333" width="46" height="29" x="2.5" y="9.5"/><rect style="opacity:.4;fill:none;fill-opacity:1;stroke:url(#linearGradient1341);stroke-width:.99999976;stroke-linecap:butt;stroke-linejoin:round;stroke-miterlimit:4;stroke-dasharray:none;stroke-dashoffset:0;stroke-opacity:1" id="rect2210" width="45" height="27" x="3.5" y="10.5"/><rect style="opacity:1;fill:none;fill-opacity:1;stroke:url(#radialGradient2218);stroke-width:.99999976;stroke-linecap:butt;stroke-linejoin:round;stroke-miterlimit:4;stroke-dasharray:none;stroke-dashoffset:0;stroke-opacity:1" id="rect2216" width="45" height="27" x="3.5" y="10.5"/><path style="opacity:1;fill:url(#radialGradient2801);fill-opacity:1;stroke:#204a87;stroke-width:.75272667;stroke-linecap:round;stroke-linejoin:miter;stroke-miterlimit:4;stroke-dasharray:none;stroke-dashoffset:1.20000057;stroke-opacity:1" id="path1895" d="M 44.724505 32.620426 A 11.667262 11.667262 0 1 1 21.389981,32.620426 A 11.667262 11.667262 0 1 1 44.724505 32.620426 z" transform="matrix(1.328503,0,0,1.328504,-15.91666,-14.33635)"/><path style="opacity:1;fill:none;fill-opacity:1;stroke:#fff;stroke-width:.80464;stroke-linecap:round;stroke-linejoin:miter;stroke-miterlimit:4;stroke-dasharray:none;stroke-dashoffset:1.20000057;stroke-opacity:1" id="path2803" d="M 44.724505 32.620426 A 11.667262 11.667262 0 1 1 21.389981,32.620426 A 11.667262 11.667262 0 1 1 44.724505 32.620426 z" transform="matrix(1.242791,0,0,1.242792,-13.08327,-11.5404)"/><path style="font-size:28px;font-style:normal;font-weight:400;fill:#fff;fill-opacity:1;stroke:none;stroke-width:1px;stroke-linecap:butt;stroke-linejoin:miter;stroke-opacity:1;font-family:Bitstream Vera Sans" id="text1891" d="M 30.857422,35.955078 L 33,36 L 33,38 L 24,38 L 24,36 L 26,36 L 26,28 L 24,28 L 24,26 L 31,26 L 31,36"/><path style="opacity:1;fill:#fff;fill-opacity:1;stroke:none;stroke-width:2;stroke-linecap:round;stroke-linejoin:miter;stroke-miterlimit:4;stroke-dasharray:none;stroke-dashoffset:1.20000057;stroke-opacity:1" id="path2782" d="M 31 22.5 A 1.5 1.5 0 1 1 28,22.5 A 1.5 1.5 0 1 1 31 22.5 z" transform="matrix(1.666667,0,0,1.666667,-20.66668,-16.00001)"/></g></svg>