<svg xmlns="http://www.w3.org/2000/svg" xmlns:cc="http://web.resource.org/cc/" xmlns:svg="http://www.w3.org/2000/svg" xmlns:xlink="http://www.w3.org/1999/xlink" id="svg2" width="32" height="32" version="1.0"><defs id="defs4"><linearGradient id="linearGradient3990"><stop style="stop-color:white;stop-opacity:1" id="stop3992" offset="0"/><stop style="stop-color:#eeeeec;stop-opacity:1" id="stop3994" offset="1"/></linearGradient><linearGradient id="linearGradient3062"><stop style="stop-color:#555753;stop-opacity:1" id="stop3064" offset="0"/><stop style="stop-color:#2e3436;stop-opacity:1" id="stop3066" offset="1"/></linearGradient><linearGradient id="linearGradient3281"><stop style="stop-color:#babdb6;stop-opacity:1" id="stop3289" offset="0"/><stop id="stop3291" offset=".092" style="stop-color:#878a84;stop-opacity:1"/><stop style="stop-color:#555753;stop-opacity:1" id="stop3285" offset=".235"/><stop id="stop3293" offset=".724" style="stop-color:#6e706c;stop-opacity:1"/><stop id="stop3287" offset="1" style="stop-color:#888a85;stop-opacity:1"/></linearGradient><linearGradient id="linearGradient3212"><stop style="stop-color:black;stop-opacity:1" id="stop3214" offset="0"/><stop style="stop-color:black;stop-opacity:0" id="stop3216" offset="1"/></linearGradient><linearGradient id="linearGradient3194"><stop style="stop-color:#888a85;stop-opacity:1" id="stop3196" offset="0"/><stop style="stop-color:#babdb6;stop-opacity:1" id="stop3198" offset="1"/></linearGradient><linearGradient id="linearGradient3170"><stop style="stop-color:black;stop-opacity:1" id="stop3172" offset="0"/><stop style="stop-color:black;stop-opacity:0" id="stop3174" offset="1"/></linearGradient><linearGradient id="linearGradient3065"><stop id="stop3067" offset="0" style="stop-color:#babdb6;stop-opacity:1"/><stop style="stop-color:white;stop-opacity:1" id="stop3069" offset=".237"/><stop id="stop3259" offset=".687" style="stop-color:#dfe0df;stop-opacity:1"/><stop id="stop3071" offset="1" style="stop-color:#888a85;stop-opacity:1"/></linearGradient><linearGradient id="linearGradient3055"><stop id="stop3057" offset="0" style="stop-color:#555753;stop-opacity:0"/><stop style="stop-color:#555753;stop-opacity:1" id="stop3059" offset=".101"/><stop style="stop-color:#555753;stop-opacity:1" id="stop3061" offset=".893"/><stop id="stop3063" offset="1" style="stop-color:#555753;stop-opacity:0"/></linearGradient><linearGradient id="linearGradient2914"><stop style="stop-color:#888a85;stop-opacity:1" id="stop2916" offset="0"/><stop id="stop2922" offset=".262" style="stop-color:white;stop-opacity:1"/><stop style="stop-color:white;stop-opacity:1" id="stop3257" offset=".473"/><stop style="stop-color:#555753;stop-opacity:1" id="stop2918" offset="1"/></linearGradient><linearGradient id="linearGradient2844"><stop style="stop-color:#d3d7cf;stop-opacity:1" id="stop2846" offset="0"/><stop style="stop-color:#babdb6;stop-opacity:1" id="stop2848" offset="1"/></linearGradient><linearGradient id="linearGradient2850" x1="9" x2="39" y1="18" y2="18" gradientTransform="matrix(0.933334,0,0,1,-6.4,-6)" gradientUnits="userSpaceOnUse" xlink:href="#linearGradient2844"/><linearGradient id="linearGradient3200" x1="15.25" x2="13.438" y1="20" y2="11.231" gradientTransform="matrix(0.935484,0,0,0.9,-6.451616,-4.05)" gradientUnits="userSpaceOnUse" xlink:href="#linearGradient3194"/><radialGradient id="radialGradient3222" cx="22.743" cy="14.5" r="14.257" fx="22.743" fy="14.5" gradientTransform="matrix(1,0,0,0.385766,0,8.906398)" gradientUnits="userSpaceOnUse" xlink:href="#linearGradient3212"/><radialGradient id="radialGradient3226" cx="22.743" cy="14.5" r="14.257" fx="22.743" fy="14.5" gradientTransform="matrix(1,0,0,0.385766,0,8.906398)" gradientUnits="userSpaceOnUse" xlink:href="#linearGradient3212"/><radialGradient id="radialGradient2045" cx="42.188" cy="20.617" r="8" fx="42.188" fy="20.617" gradientTransform="matrix(-5.161079e-6,0.789996,-2.179241,0,60.96544,-20.69235)" gradientUnits="userSpaceOnUse" xlink:href="#linearGradient3170"/><linearGradient id="linearGradient2079" x1="16.672" x2="30.604" y1="23.782" y2="23.782" gradientTransform="matrix(0.85101,0,0,0.75,-4.434014,0.125)" gradientUnits="userSpaceOnUse" xlink:href="#linearGradient2914"/><linearGradient id="linearGradient2082" x1="17.985" x2="30.604" y1="23.782" y2="23.782" gradientTransform="matrix(0.85101,0,0,0.71429,-4.434014,0.714162)" gradientUnits="userSpaceOnUse" xlink:href="#linearGradient3065"/><linearGradient id="linearGradient2085" x1="17.985" x2="30.604" y1="23.782" y2="23.782" gradientTransform="matrix(0.85101,0,0,1,-4.434014,-7)" gradientUnits="userSpaceOnUse" xlink:href="#linearGradient3065"/><linearGradient id="linearGradient2088" x1="17.985" x2="30.604" y1="23.782" y2="23.782" gradientTransform="matrix(0.85101,0,0,1,-4.434014,-7)" gradientUnits="userSpaceOnUse" xlink:href="#linearGradient3065"/><linearGradient id="linearGradient2097" x1="18.625" x2="26.25" y1="31.929" y2="31.304" gradientTransform="matrix(0.85101,0,0,0.775,-4.434014,-0.8125)" gradientUnits="userSpaceOnUse" xlink:href="#linearGradient3281"/><linearGradient id="linearGradient2100" x1="18.344" x2="28.125" y1="22.429" y2="20.054" gradientTransform="matrix(0.85101,0,0,1,-4.434014,-7)" gradientUnits="userSpaceOnUse" xlink:href="#linearGradient3281"/><linearGradient id="linearGradient2103" x1="18.094" x2="26.563" y1="26.241" y2="25.616" gradientTransform="matrix(0.85101,0,0,1,-4.434014,-7)" gradientUnits="userSpaceOnUse" xlink:href="#linearGradient3281"/><linearGradient id="linearGradient2105" x1="17.812" x2="22.156" y1="28.187" y2="31.062" gradientUnits="userSpaceOnUse" xlink:href="#linearGradient3055"/><linearGradient id="linearGradient2107" x1="17.237" x2="19.007" y1="23.558" y2="27" gradientUnits="userSpaceOnUse" xlink:href="#linearGradient3055"/><linearGradient id="linearGradient2109" x1="17.875" x2="19.344" y1="18.594" y2="22.469" gradientUnits="userSpaceOnUse" xlink:href="#linearGradient3055"/><linearGradient id="linearGradient3068" x1="24.125" x2="35.965" y1="17.438" y2="17.438" gradientUnits="userSpaceOnUse" xlink:href="#linearGradient3062"/><linearGradient id="linearGradient3070" x1="24.125" x2="35.965" y1="17.438" y2="17.438" gradientUnits="userSpaceOnUse" xlink:href="#linearGradient3062"/><linearGradient id="linearGradient3072" x1="24.125" x2="35.965" y1="17.438" y2="17.438" gradientUnits="userSpaceOnUse" xlink:href="#linearGradient3062"/><linearGradient id="linearGradient3074" x1="24.125" x2="35.965" y1="17.438" y2="17.438" gradientUnits="userSpaceOnUse" xlink:href="#linearGradient3062"/><linearGradient id="linearGradient3076" x1="24.125" x2="35.965" y1="17.438" y2="17.438" gradientUnits="userSpaceOnUse" xlink:href="#linearGradient3062"/><linearGradient id="linearGradient3078" x1="24.125" x2="35.965" y1="17.438" y2="17.438" gradientUnits="userSpaceOnUse" xlink:href="#linearGradient3062"/><linearGradient id="linearGradient3080" x1="24.125" x2="35.965" y1="17.438" y2="17.438" gradientUnits="userSpaceOnUse" xlink:href="#linearGradient3062"/><linearGradient id="linearGradient3082" x1="24.125" x2="35.965" y1="17.438" y2="17.438" gradientUnits="userSpaceOnUse" xlink:href="#linearGradient3062"/><radialGradient id="radialGradient3996" cx="18.092" cy="12.61" r="13.406" fx="18.092" fy="12.61" gradientTransform="matrix(1.381384,0,-3.860253e-8,0.805458,-7.281344,-1.17069)" gradientUnits="userSpaceOnUse" xlink:href="#linearGradient3990"/></defs><metadata id="metadata7"/><g id="layer4" style="display:inline"><path style="opacity:.2;fill:url(#radialGradient3222);fill-opacity:1;stroke:none;stroke-width:1;stroke-linecap:round;stroke-linejoin:miter;stroke-miterlimit:4;stroke-dasharray:none;stroke-opacity:1;display:inline" id="path3202" d="M 37.000002 14.5 A 14.25736 5.5 0 1 1 8.485281,14.5 A 14.25736 5.5 0 1 1 37.000002 14.5 z" transform="matrix(1.059534,0,0,0.944135,-8.096595,12.81005)"/><path style="opacity:.3;fill:url(#radialGradient3226);fill-opacity:1;stroke:none;stroke-width:1;stroke-linecap:round;stroke-linejoin:miter;stroke-miterlimit:4;stroke-dasharray:none;stroke-opacity:1;display:inline" id="path3224" d="M 37.000002 14.5 A 14.25736 5.5 0 1 1 8.485281,14.5 A 14.25736 5.5 0 1 1 37.000002 14.5 z" transform="matrix(0.576833,0,0,0.639006,2.881306,17.23441)"/></g><g id="layer3" style="display:inline"><g id="g2167" transform="translate(-14,1)" style="fill-opacity:1;stroke:url(#linearGradient3068);stroke-width:3;stroke-miterlimit:4;stroke-dasharray:none;stroke-opacity:1"><path id="path2139" d="M 24.458661,19 C 24.458661,17 26.586186,15.5 30.415731,15.5 C 33.527875,15.5 35.521791,15.948 35.521791,16.5" style="fill:none;fill-opacity:1;stroke:url(#linearGradient3070);stroke-width:3;stroke-linecap:round;stroke-linejoin:miter;stroke-miterlimit:4;stroke-dasharray:none;stroke-opacity:1;display:inline"/><path id="path2141" d="M 24.458661,14.5 C 24.458661,12.5 26.586186,11.5 30.415731,11.5 C 33.527875,11.5 35.521791,11.948 35.521791,12.5" style="fill:none;fill-opacity:1;stroke:url(#linearGradient3072);stroke-width:3;stroke-linecap:round;stroke-linejoin:miter;stroke-miterlimit:4;stroke-dasharray:none;stroke-opacity:1;display:inline"/><path id="path2143" d="M 25.309671,23.375 C 25.309671,21.05 27.011691,19.5 30.808507,19.5 C 33.681255,19.5 35.521794,19.8875 35.521794,20.6625" style="fill:none;fill-opacity:1;stroke:url(#linearGradient3074);stroke-width:3;stroke-linecap:round;stroke-linejoin:miter;stroke-miterlimit:4;stroke-dasharray:none;stroke-opacity:1;display:inline"/><path id="path2145" d="M 35.521778,12.5 C 35.521778,13.5 31.965774,13.5 30.780439,13.499984 C 27.290813,13.499937 24.458653,11.931985 24.458653,9.999986" style="fill:none;fill-opacity:1;stroke:url(#linearGradient3076);stroke-width:3;stroke-linecap:round;stroke-linejoin:miter;stroke-miterlimit:4;stroke-dasharray:none;stroke-opacity:1;display:inline"/><path id="path2147" d="M 35.521778,16.5 C 35.521778,17.5 31.965774,17.5 30.780439,17.499984 C 27.290813,17.499937 24.458661,16.431999 24.458661,14.5" style="fill:none;fill-opacity:1;stroke:url(#linearGradient3078);stroke-width:3;stroke-linecap:round;stroke-linejoin:miter;stroke-miterlimit:4;stroke-dasharray:none;stroke-opacity:1;display:inline"/><path id="path2149" d="M 35.521791,20.428572 C 35.521791,21.500007 31.965774,21.500007 30.780439,21.499996 C 27.290813,21.499962 24.458653,20.37999 24.458653,18.999982" style="fill:none;fill-opacity:1;stroke:url(#linearGradient3080);stroke-width:3;stroke-linecap:round;stroke-linejoin:miter;stroke-miterlimit:4;stroke-dasharray:none;stroke-opacity:1;display:inline"/><path id="path2151" d="M 25.309671,23.5 C 25.309671,25.75 27.437196,26.5 30.658868,26.499988 L 31.266741,26.5" style="fill:none;fill-opacity:1;stroke:url(#linearGradient3082);stroke-width:3;stroke-linecap:round;stroke-linejoin:miter;stroke-miterlimit:4;stroke-dasharray:none;stroke-opacity:1;display:inline"/></g><path style="fill:none;fill-opacity:1;stroke:url(#linearGradient2103);stroke-width:.9999997;stroke-linecap:round;stroke-linejoin:miter;stroke-miterlimit:4;stroke-opacity:1;display:inline" id="path2857" d="M 10.458661,20 C 10.458661,18 12.586186,16.5 16.415731,16.5 C 19.527875,16.5 21.521791,16.948 21.521791,17.5"/><path style="fill:none;fill-opacity:1;stroke:url(#linearGradient2100);stroke-width:.9999997;stroke-linecap:round;stroke-linejoin:miter;stroke-miterlimit:4;stroke-opacity:1;display:inline" id="path2871" d="M 10.458661,15.5 C 10.458661,13.5 12.586186,12.5 16.415731,12.5 C 19.527875,12.5 21.521791,12.948 21.521791,13.5"/><path style="fill:none;fill-opacity:1;stroke:url(#linearGradient2097);stroke-width:.99999976;stroke-linecap:round;stroke-linejoin:miter;stroke-miterlimit:4;stroke-dasharray:none;stroke-opacity:1;display:inline" id="path2873" d="M 11.309671,24.375 C 11.309671,22.05 13.011691,20.5 16.808507,20.5 C 19.681255,20.5 21.521794,20.8875 21.521794,21.6625"/><g id="g3081" transform="matrix(0.85101,0,0,0.935485,-4.43401,-5.935502)" style="opacity:.8"><path id="path3023" d="M 30.5,29 C 30.5,30.5 26.321416,30.5 24.928559,30.499984 C 20.827989,30.499937 17.499991,28.931985 17.499991,26.999986" style="fill:none;fill-opacity:1;stroke:url(#linearGradient2105);stroke-width:3.36229181;stroke-linecap:round;stroke-linejoin:miter;stroke-miterlimit:4;stroke-dasharray:none;stroke-opacity:1;display:inline"/><path id="path3021" d="M 30.499985,24.5 C 30.499985,25.5 26.321416,25.5 24.928559,25.499984 C 20.827989,25.499937 17.5,24.431999 17.5,22.5" style="fill:none;fill-opacity:1;stroke:url(#linearGradient2107);stroke-width:3.36229181;stroke-linecap:round;stroke-linejoin:miter;stroke-miterlimit:4;stroke-dasharray:none;stroke-opacity:1;display:inline"/><path id="path3019" d="M 30.499985,20.5 C 30.499985,21.5 26.321416,21.5 24.928559,21.499984 C 20.827989,21.499937 17.499991,19.931985 17.499991,17.999986" style="fill:none;fill-opacity:1;stroke:url(#linearGradient2109);stroke-width:3.36229181;stroke-linecap:round;stroke-linejoin:miter;stroke-miterlimit:4;stroke-dasharray:none;stroke-opacity:1;display:inline"/></g><path style="fill:none;fill-opacity:1;stroke:url(#linearGradient2088);stroke-width:.99999934;stroke-linecap:round;stroke-linejoin:miter;stroke-miterlimit:4;stroke-opacity:1;display:inline" id="path2869" d="M 21.521778,13.5 C 21.521778,14.5 17.965774,14.5 16.780439,14.499984 C 13.290813,14.499937 10.458653,12.931985 10.458653,10.999986"/><path style="fill:none;fill-opacity:1;stroke:url(#linearGradient2085);stroke-width:.99999934;stroke-linecap:round;stroke-linejoin:miter;stroke-miterlimit:4;stroke-opacity:1;display:inline" id="path2852" d="M 21.521778,17.5 C 21.521778,18.5 17.965774,18.5 16.780439,18.499984 C 13.290813,18.499937 10.458661,17.431999 10.458661,15.5"/><path style="fill:none;fill-opacity:1;stroke:url(#linearGradient2082);stroke-width:.99999917;stroke-linecap:round;stroke-linejoin:miter;stroke-miterlimit:4;stroke-opacity:1;display:inline" id="path2867" d="M 21.521791,21.428572 C 21.521791,22.500007 17.965774,22.500007 16.780439,22.499996 C 13.290813,22.499962 10.458653,21.37999 10.458653,19.999982"/><path style="fill:none;fill-opacity:1;stroke:url(#linearGradient2079);stroke-width:.99999934;stroke-linecap:round;stroke-linejoin:miter;stroke-miterlimit:4;stroke-opacity:1;display:inline" id="path2875" d="M 11.309671,24.5 C 11.309671,26.75 13.437196,27.5 16.658868,27.499988 L 17.266741,27.5"/><path style="opacity:.41906613;fill:url(#radialGradient2045);fill-opacity:1;stroke:none;stroke-width:3;stroke-linecap:round;stroke-linejoin:miter;stroke-miterlimit:4;stroke-dasharray:none;stroke-opacity:1;display:inline" id="path2885" d="M 10.432067,9.46875 C 9.727032,9.485913 9.167375,10.171535 9.182146,11 C 9.182146,11.881664 9.454902,12.625607 9.900186,13.25 C 9.454598,13.887228 9.182146,14.657449 9.182146,15.5 C 9.180518,15.635238 9.207361,15.778745 9.235334,15.90625 C 9.316926,16.562154 9.551587,17.185857 9.900186,17.65625 C 9.454179,18.334874 9.182146,19.134654 9.182146,20 C 9.182146,20.772652 9.436601,21.426674 9.793809,22 L 22.798306,22 C 22.798306,21.836163 22.777835,21.686296 22.745118,21.53125 C 22.736728,21.500474 22.728537,21.467412 22.718524,21.4375 C 22.579044,20.885083 22.266871,20.400575 21.947296,20.125 C 21.662513,19.879426 21.359045,19.71594 21.043098,19.59375 C 21.14993,19.560281 21.257813,19.541726 21.362227,19.5 C 21.624349,19.395251 21.898343,19.27716 22.186643,19 C 22.402868,18.79213 22.640658,18.416695 22.745118,17.96875 C 22.78391,17.822653 22.799463,17.658748 22.798306,17.5 C 22.798306,17.350107 22.775016,17.194889 22.745118,17.0625 C 22.729371,16.995494 22.715191,16.938222 22.69193,16.875 C 22.589518,16.575983 22.430548,16.335194 22.293019,16.1875 C 22.06938,15.947333 21.853647,15.819752 21.654761,15.71875 C 21.515239,15.647895 21.374208,15.581817 21.229256,15.53125 C 21.272645,15.515545 21.319264,15.517168 21.362227,15.5 C 21.624349,15.395251 21.898343,15.27716 22.186643,15 C 22.402868,14.79213 22.640658,14.416695 22.745118,13.96875 C 22.78391,13.822653 22.799463,13.658748 22.798306,13.5 C 22.798306,13.350107 22.775016,13.194889 22.745118,13.0625 C 22.729371,12.995494 22.715191,12.938222 22.69193,12.875 C 22.655029,12.767259 22.606979,12.683888 22.558959,12.59375 C 22.473707,12.433724 22.380995,12.281977 22.293019,12.1875 C 22.06938,11.947333 21.853647,11.819752 21.654761,11.71875 C 21.25699,11.516746 20.853289,11.414806 20.351652,11.3125 C 19.348379,11.107888 18.023929,11 16.415731,11 C 14.727122,11 13.33239,11.193957 12.160681,11.625 C 11.842584,11.321771 11.735176,11.068697 11.735176,11 C 11.742464,10.591322 11.608837,10.195293 11.362859,9.90625 C 11.11688,9.617208 10.779856,9.460186 10.432067,9.46875 z M 12.001117,14.9375 C 12.362413,15.121862 12.739022,15.301411 13.144661,15.4375 C 12.749906,15.556166 12.374907,15.707141 12.027711,15.875 C 11.962648,15.82307 11.879164,15.762446 11.841552,15.71875 C 11.703273,15.558104 11.735176,15.552359 11.735176,15.5 C 11.735176,15.25 11.772604,15.113426 12.001117,14.9375 z M 12.080899,19.1875 C 12.503785,19.361466 12.961006,19.510718 13.437196,19.625 C 12.929981,19.85067 12.463851,20.147539 12.054305,20.5 C 11.825542,20.249692 11.735176,20.060031 11.735176,20 C 11.735176,19.738432 11.797126,19.471169 12.080899,19.1875 z"/></g><g id="layer2" style="display:inline"><path style="opacity:1;fill:#fff;fill-opacity:1;stroke:url(#linearGradient3200);stroke-width:1.00000024;stroke-linecap:round;stroke-linejoin:round;stroke-miterlimit:4;stroke-opacity:1" id="rect1880" d="M 5,4.5 L 27,4.5 L 30.5,11 L 30.500013,13.5 L 1.5000006,13.5 L 1.5,11 L 5,4.5 z"/><rect style="opacity:1;fill:url(#linearGradient2850);fill-opacity:1;stroke:none;stroke-width:1;stroke-linecap:round;stroke-linejoin:round;stroke-miterlimit:4;stroke-dasharray:none;stroke-opacity:1" id="rect2768" width="28" height="2" x="2" y="11"/><g id="g2835" transform="translate(-8,-6)" style="opacity:.8"><rect id="rect2770" width="2" height="2" x="11" y="17" style="opacity:1;fill:#ef2929;fill-opacity:1;stroke:none;stroke-width:1;stroke-linecap:round;stroke-linejoin:round;stroke-miterlimit:4;stroke-dasharray:none;stroke-opacity:1"/><rect id="rect2772" width="2" height="2" x="15" y="17" style="opacity:1;fill:#ef2929;fill-opacity:1;stroke:none;stroke-width:1;stroke-linecap:round;stroke-linejoin:round;stroke-miterlimit:4;stroke-dasharray:none;stroke-opacity:1;display:inline"/><rect id="rect2774" width="2" height="2" x="23" y="17" style="opacity:1;fill:#ef2929;fill-opacity:1;stroke:none;stroke-width:1;stroke-linecap:round;stroke-linejoin:round;stroke-miterlimit:4;stroke-dasharray:none;stroke-opacity:1;display:inline"/><rect id="rect2776" width="2" height="2" x="19" y="17" style="opacity:1;fill:#ef2929;fill-opacity:1;stroke:none;stroke-width:1;stroke-linecap:round;stroke-linejoin:round;stroke-miterlimit:4;stroke-dasharray:none;stroke-opacity:1;display:inline"/><rect id="rect2778" width="2" height="2" x="27" y="17" style="opacity:1;fill:#ef2929;fill-opacity:1;stroke:none;stroke-width:1;stroke-linecap:round;stroke-linejoin:round;stroke-miterlimit:4;stroke-dasharray:none;stroke-opacity:1;display:inline"/><rect id="rect2780" width="2" height="2" x="31" y="17" style="opacity:1;fill:#ef2929;fill-opacity:1;stroke:none;stroke-width:1;stroke-linecap:round;stroke-linejoin:round;stroke-miterlimit:4;stroke-dasharray:none;stroke-opacity:1;display:inline"/><rect id="rect2782" width="2" height="2" x="35" y="17" style="opacity:1;fill:#ef2929;fill-opacity:1;stroke:none;stroke-width:1;stroke-linecap:round;stroke-linejoin:round;stroke-miterlimit:4;stroke-dasharray:none;stroke-opacity:1;display:inline"/></g><path style="opacity:.5;fill:#ef2929;fill-opacity:1;stroke:none;stroke-width:1;stroke-linecap:round;stroke-linejoin:round;stroke-miterlimit:4;stroke-opacity:1;display:inline" id="path2805" d="M 5.3125,5 L 3.25,8.8125 L 7.0625,5 L 5.3125,5 z M 9,5 L 3,11 L 5,11 L 11,5 L 9,5 z M 13,5 L 7,11 L 9,11 L 15,5 L 13,5 z M 17,5 L 11,11 L 13,11 L 19,5 L 17,5 z M 21,5 L 15,11 L 17,11 L 23,5 L 21,5 z M 25.0625,5 L 19.0625,11 L 21.0625,11 L 26.8125,5.25 L 26.6875,5 L 25.0625,5 z M 27.53125,6.53125 L 23.0625,11 L 25.0625,11 L 28.21875,7.84375 L 27.53125,6.53125 z M 28.9375,9.125 L 27.0625,11 L 29.0625,11 L 29.625,10.4375 L 28.9375,9.125 z"/><path style="opacity:.4;fill:none;fill-opacity:1;stroke:#fff;stroke-width:1;stroke-linecap:round;stroke-linejoin:miter;stroke-miterlimit:4;stroke-dasharray:none;stroke-opacity:1;display:inline" id="path3088" d="M 5.59375,3.5 L 2.5,9.46875 L 2.5,10.5 L 29.5,10.5 L 29.5,9.46875 L 26.40625,3.5 L 5.59375,3.5 z" transform="translate(0,2)"/><path style="opacity:1;fill:url(#radialGradient3996);fill-opacity:1;stroke:none;stroke-width:1.00000024;stroke-linecap:round;stroke-linejoin:round;stroke-miterlimit:4;stroke-opacity:1;display:inline" id="path3984" d="M 4.78125,6 L 2.59375,10 L 29.40625,10 L 27.21875,6 L 4.78125,6 z"/><path style="opacity:1;fill:none;fill-opacity:1;stroke:#729fcf;stroke-width:1.00000072;stroke-linecap:round;stroke-linejoin:round;stroke-miterlimit:4;stroke-opacity:1;display:inline" id="path1973" d="M 29.50001,4.5000005 L 28.52368,3.2078604 C 28.197865,2.7753789 27.561899,2.5033846 26.866878,2.4992675 L 24.500017,2.4992675"/><path style="opacity:1;fill:none;fill-opacity:1;stroke:#729fcf;stroke-width:1.00000024;stroke-linecap:round;stroke-linejoin:round;stroke-miterlimit:4;stroke-opacity:1;display:inline" id="path2874" d="M 7.4999986,2.4992675 L 5.1331349,2.4992675 C 5.0739959,2.4973128 5.0147592,2.4973128 4.9556202,2.4992675 C 4.3252436,2.5461726 3.76999,2.8121439 3.4763304,3.2078604 L 2.4999992,4.5000005"/><path style="opacity:1;fill:none;fill-opacity:1;stroke:#729fcf;stroke-width:1.00000072;stroke-linecap:round;stroke-linejoin:round;stroke-miterlimit:4;stroke-opacity:1;display:inline" id="path2876" d="M 29.500004,1.4999998 L 29.078577,1.1506769 C 28.854127,0.934357 28.075373,0.49926712 27.111988,0.49926712 L 26.055557,0.49926712"/><path style="opacity:1;fill:none;fill-opacity:1;stroke:#729fcf;stroke-width:1.00000072;stroke-linecap:round;stroke-linejoin:round;stroke-miterlimit:4;stroke-opacity:1;display:inline" id="path2878" d="M 5.9444475,0.49925511 C 5.3601948,0.499227 5.0270342,0.49925511 4.4428101,0.49925511 C 4.0085503,0.52271653 3.141667,0.95273966 2.9393681,1.1506727 L 2.5000016,1.4999998"/></g></svg>