<svg xmlns="http://www.w3.org/2000/svg" xmlns:cc="http://web.resource.org/cc/" xmlns:svg="http://www.w3.org/2000/svg" id="svg1325" width="32" height="32" version="1.0"><metadata id="metadata1330"/><g id="layer1"><rect style="opacity:1;fill:#d3d7cf;fill-opacity:1;stroke:#888a85;stroke-width:.99999928;stroke-linecap:butt;stroke-linejoin:round;stroke-miterlimit:4;stroke-dasharray:none;stroke-dashoffset:0;stroke-opacity:1" id="rect1333" width="32.5" height="25" x=".5" y="3.5"/><rect style="opacity:.61176471;fill:none;fill-opacity:1;stroke:#eeeeec;stroke-width:.99999952;stroke-linecap:butt;stroke-linejoin:round;stroke-miterlimit:4;stroke-dasharray:none;stroke-dashoffset:0;stroke-opacity:1" id="rect2210" width="31.352" height="23" x="1.5" y="4.5"/><rect style="opacity:1;color:#000;fill:#dce0d8;fill-opacity:1;fill-rule:nonzero;stroke:#888a85;stroke-width:1;stroke-linecap:square;stroke-linejoin:miter;marker:none;marker-start:none;marker-mid:none;marker-end:none;stroke-miterlimit:4;stroke-dasharray:none;stroke-dashoffset:0;stroke-opacity:1;visibility:visible;display:inline;overflow:visible" id="rect1337" width="8" height="21" x="2.5" y="5.5" rx="1.625" ry="1.625"/><rect style="opacity:.59607843;color:#000;fill:none;fill-opacity:1;fill-rule:nonzero;stroke:#fff;stroke-width:1.00000024;stroke-linecap:square;stroke-linejoin:miter;marker:none;marker-start:none;marker-mid:none;marker-end:none;stroke-miterlimit:4;stroke-dasharray:none;stroke-dashoffset:0;stroke-opacity:1;visibility:visible;display:inline;overflow:visible" id="rect2212" width="6" height="19" x="3.5" y="6.5" rx=".563" ry=".564"/><path style="fill:#000;fill-opacity:1;fill-rule:evenodd;stroke:none;stroke-width:1px;stroke-linecap:butt;stroke-linejoin:miter;stroke-opacity:1" id="path2214" d="M 5,15.5 L 8,13 L 8,18 L 5,15.5 z"/><g id="layer6" transform="matrix(0.813534,0,0,0.803206,-0.556649,-3.784185)" style="fill:#2e3436;display:inline"><g id="g2450" transform="matrix(1.111126,0,0,1.11111,-1.111123,-1.999954)" style="fill:#2e3436;fill-opacity:1;display:inline"><path id="path4490" d="M 29.825673,13.93243 C 25.873042,13.93243 25.131582,19.562222 27.355158,19.562222 C 29.578413,19.562222 33.778465,13.93243 29.825673,13.93243 z" style="fill:#2e3436;fill-opacity:1;fill-rule:nonzero;stroke:none;stroke-width:.99639398;stroke-miterlimit:4;stroke-dasharray:none"/><path id="path4492" d="M 23.262429,18.864623 C 24.446355,18.936922 25.745315,14.346459 23.520132,14.63517 C 21.295753,14.923881 22.078021,18.792325 23.262429,18.864623 z" style="fill:#2e3436;fill-opacity:1;fill-rule:nonzero;stroke:none;stroke-width:.99639398;stroke-miterlimit:4;stroke-dasharray:none"/><path id="path4494" d="M 17.836518,21.717034 C 18.678553,21.346385 17.944966,17.721024 16.513137,18.709744 C 15.081951,19.698625 16.994483,22.087523 17.836518,21.717034 z" style="fill:#2e3436;fill-opacity:1;fill-rule:nonzero;stroke:none;stroke-width:.99639398;stroke-miterlimit:4;stroke-dasharray:none"/><path id="path4496" d="M 20.209029,19.819444 C 21.211405,19.61508 21.266352,15.503393 19.478815,16.240997 C 17.690957,16.978761 19.207455,20.024128 20.209029,19.819444 L 20.209029,19.819444 z" style="fill:#2e3436;fill-opacity:1;fill-rule:nonzero;stroke:none;stroke-width:.99639398;stroke-miterlimit:4;stroke-dasharray:none"/><path id="path4498" d="M 25.443268,29.020774 C 25.621122,30.379019 24.446837,31.049787 23.296811,30.174174 C 19.635783,27.386832 29.358465,25.996454 28.71758,22.188259 C 28.185625,19.027375 18.487203,20.000511 17.382806,24.9462 C 16.635241,28.291525 20.459984,32.932436 24.450853,32.932436 C 26.414155,32.932436 28.6787,31.159681 29.102368,28.913933 C 29.425944,27.201427 25.294816,27.887618 25.443268,29.020774 L 25.443268,29.020774 z" style="fill:#2e3436;fill-opacity:1;fill-rule:nonzero;stroke:none;stroke-width:.99639398;stroke-miterlimit:4;stroke-dasharray:none"/></g></g></g></svg>