<svg xmlns="http://www.w3.org/2000/svg" xmlns:cc="http://web.resource.org/cc/" xmlns:svg="http://www.w3.org/2000/svg" xmlns:xlink="http://www.w3.org/1999/xlink" id="svg1325" width="32" height="32" version="1.0"><defs id="defs1327"><linearGradient id="linearGradient2783"><stop style="stop-color:#729fcf;stop-opacity:1" id="stop2785" offset="0"/><stop style="stop-color:#3465a4;stop-opacity:1" id="stop2787" offset="1"/></linearGradient><linearGradient id="linearGradient2270"><stop style="stop-color:#fff;stop-opacity:1" id="stop2272" offset="0"/><stop style="stop-color:#fff;stop-opacity:0" id="stop2274" offset="1"/></linearGradient><linearGradient id="linearGradient2262"><stop style="stop-color:#d3d7cf;stop-opacity:1" id="stop2264" offset="0"/><stop style="stop-color:#d3d7cf;stop-opacity:0" id="stop2266" offset="1"/></linearGradient><linearGradient id="linearGradient2252"><stop style="stop-color:#888a85;stop-opacity:1" id="stop2254" offset="0"/><stop style="stop-color:#888a85;stop-opacity:0" id="stop2256" offset="1"/></linearGradient><linearGradient id="linearGradient2258" x1="31.875" x2="47.438" y1="17.438" y2="17.438" gradientTransform="matrix(0.695652,0,0,0.862069,-1.23913,-13.58621)" gradientUnits="userSpaceOnUse" xlink:href="#linearGradient2252"/><linearGradient id="linearGradient2268" x1="31.873" x2="46.705" y1="20.688" y2="20.688" gradientTransform="matrix(0.695652,0,0,0.862069,-1.23913,-13.58621)" gradientUnits="userSpaceOnUse" xlink:href="#linearGradient2262"/><linearGradient id="linearGradient1341" x1="23.997" x2="45.754" y1="18.375" y2="18.375" gradientTransform="matrix(0.711111,0,0,0.851852,-0.988889,-13.25926)" gradientUnits="userSpaceOnUse" xlink:href="#linearGradient2270"/><radialGradient id="radialGradient2218" cx="3.624" cy="2.005" r="23" fx="3.624" fy="2.005" gradientTransform="matrix(0,0.959184,-1.084865,0,3.757751,-0.88083)" gradientUnits="userSpaceOnUse" xlink:href="#linearGradient2270"/><radialGradient id="radialGradient1905" cx="34.375" cy="38.266" r="12.044" fx="34.375" fy="38.266" gradientTransform="matrix(1.53143,0,0,1.53143,-18.26764,-20.33562)" gradientUnits="userSpaceOnUse" xlink:href="#linearGradient2783"/></defs><metadata id="metadata1330"/><g id="layer1"><rect style="opacity:1;fill:url(#linearGradient2268);fill-opacity:1;stroke:url(#linearGradient2258);stroke-width:.9999994;stroke-linecap:butt;stroke-linejoin:round;stroke-miterlimit:4;stroke-dasharray:none;stroke-dashoffset:0;stroke-opacity:1" id="rect1333" width="32" height="25" x=".5" y="1.5"/><rect style="opacity:.4;fill:none;fill-opacity:1;stroke:url(#linearGradient1341);stroke-width:.99999976;stroke-linecap:butt;stroke-linejoin:round;stroke-miterlimit:4;stroke-dasharray:none;stroke-dashoffset:0;stroke-opacity:1" id="rect2210" width="32" height="23" x="1.5" y="2.5"/><rect style="opacity:1;fill:none;fill-opacity:1;stroke:url(#radialGradient2218);stroke-width:1.00000012;stroke-linecap:butt;stroke-linejoin:round;stroke-miterlimit:4;stroke-dasharray:none;stroke-dashoffset:0;stroke-opacity:1" id="rect2216" width="30" height="23" x="1.5" y="2.5"/><path style="fill:url(#radialGradient1905);fill-opacity:1;stroke:#204a87;stroke-width:.97227275;stroke-linecap:round;stroke-linejoin:miter;stroke-miterlimit:4;stroke-dasharray:none;stroke-dashoffset:1.20000057;stroke-opacity:1" id="path1895" d="M 44.724505 32.620426 A 11.667262 11.667262 0 1 1 21.389981,32.620426 A 11.667262 11.667262 0 1 1 44.724505 32.620426 z" transform="matrix(1.028518,0,0,1.028519,-14.49998,-15.05072)"/><path style="fill:none;fill-opacity:1;stroke:#fff;stroke-width:1.06066108;stroke-linecap:round;stroke-linejoin:miter;stroke-miterlimit:4;stroke-dasharray:none;stroke-dashoffset:1.20000057;stroke-opacity:1" id="path2803" d="M 44.724505 32.620426 A 11.667262 11.667262 0 1 1 21.389981,32.620426 A 11.667262 11.667262 0 1 1 44.724505 32.620426 z" transform="matrix(0.942809,0,0,0.942809,-11.66666,-12.25483)"/><path style="font-size:28px;font-style:normal;font-weight:400;fill:#fff;fill-opacity:1;stroke:none;stroke-width:1px;stroke-linecap:butt;stroke-linejoin:miter;stroke-opacity:1;font-family:Bitstream Vera Sans" id="text1891" d="M 22,24 L 24,24 L 24,26 L 16,26 L 16,24 L 18,24 L 18,18 L 16,18 L 16,16 L 22,16"/><path style="fill:#fff;fill-opacity:1;stroke:none;stroke-width:2;stroke-linecap:round;stroke-linejoin:miter;stroke-miterlimit:4;stroke-dasharray:none;stroke-dashoffset:1.20000057;stroke-opacity:1" id="path2782" d="M 31 22.5 A 1.5 1.5 0 1 1 28,22.5 A 1.5 1.5 0 1 1 31 22.5 z" transform="matrix(1.343195,0,0,1.333332,-19.60947,-16.99998)"/></g></svg>