<svg xmlns="http://www.w3.org/2000/svg" xmlns:cc="http://web.resource.org/cc/" xmlns:svg="http://www.w3.org/2000/svg" id="svg2285" width="32" height="32" version="1.0"><metadata id="metadata2290"/><g id="layer1"><rect style="opacity:1;fill:#babdb6;fill-opacity:1;stroke:#555753;stroke-width:1.00000048;stroke-linecap:butt;stroke-linejoin:round;stroke-miterlimit:4;stroke-dasharray:none;stroke-dashoffset:0;stroke-opacity:1" id="rect3734" width="46.978" height="22.987" x="-4.478" y="3.513" rx="0" ry="0"/><path style="fill:#d3d7cf;fill-opacity:1;stroke:#555753;stroke-width:.99999988;stroke-linecap:butt;stroke-linejoin:round;stroke-miterlimit:4;stroke-dashoffset:0;stroke-opacity:1" id="rect3762" d="M -4.46875,6.545685 L -4.46875,23.473181 L 2.1875,23.473181 C 2.3239085,23.473181 2.4702395,23.44929 2.59375,23.410681 C 2.7871883,23.344878 2.9840671,23.209167 3.125,23.066931 C 3.1901439,22.997958 3.2632516,22.898901 3.3125,22.816931 C 3.4229364,22.622656 3.5,22.370353 3.5,22.129431 L 3.5,7.889435 C 3.5,7.648513 3.4229364,7.396209 3.3125,7.201935 C 3.2632516,7.119965 3.1901439,7.020908 3.125,6.951935 C 2.9840672,6.809699 2.7871883,6.673988 2.59375,6.608185 C 2.4702395,6.569576 2.3239084,6.545685 2.1875,6.545685 L -4.46875,6.545685 z M 6.65625,6.545685 C 6.579398,6.555488 6.478298,6.585663 6.40625,6.608185 C 6.212812,6.673988 6.015933,6.809699 5.875,6.951935 C 5.809856,7.020908 5.736748,7.119965 5.6875,7.201935 C 5.577064,7.396209 5.5,7.648513 5.5,7.889435 L 5.5,22.129431 C 5.5,22.370353 5.577064,22.622657 5.6875,22.816931 C 5.736748,22.898901 5.809856,22.997958 5.875,23.066931 C 6.015933,23.209167 6.212812,23.344878 6.40625,23.410681 C 6.529761,23.44929 6.676091,23.473181 6.8125,23.473181 L 42.46875,23.473181 L 42.46875,6.545685 L 6.8125,6.545685 C 6.755663,6.545685 6.711144,6.538683 6.65625,6.545685 z"/><path style="opacity:.90980392;fill:none;fill-opacity:1;stroke:#eeeeec;stroke-width:.99999952;stroke-linecap:butt;stroke-linejoin:round;stroke-miterlimit:4;stroke-dashoffset:0;stroke-opacity:1" id="rect3736" d="M -4.53125,7.562712 L -4.53125,22.482043 L 1.875,22.482043 C 1.9694365,22.482043 2.0767266,22.45775 2.15625,22.419543 C 2.3022681,22.340417 2.4265303,22.178149 2.46875,22.013293 C 2.4767973,21.973767 2.5,21.930265 2.5,21.888293 L 2.5,8.187712 C 2.5,8.009332 2.403116,7.829679 2.28125,7.718962 C 2.2513391,7.694298 2.1906072,7.64383 2.15625,7.625212 C 2.0767266,7.587005 1.9694366,7.562712 1.875,7.562712 L -4.53125,7.562712 z M 7,7.562712 C 6.929628,7.573405 6.841375,7.623881 6.78125,7.656462 C 6.75626,7.671615 6.709933,7.700464 6.6875,7.718962 C 6.673163,7.731988 6.638026,7.767125 6.625,7.781462 C 6.606502,7.803895 6.577653,7.850222 6.5625,7.875212 C 6.515956,7.961105 6.46875,8.082783 6.46875,8.187712 L 6.46875,21.888293 C 6.46875,21.940758 6.487582,21.996056 6.5,22.044543 C 6.517656,22.101548 6.561138,22.183692 6.59375,22.232043 C 6.704082,22.379756 6.894383,22.482043 7.09375,22.482043 L 42.5,22.482043 L 42.5,7.562712 L 7.09375,7.562712 C 7.062271,7.562712 7.030159,7.558129 7,7.562712 z"/><g id="g1374" transform="translate(-4,-18.9375)"><rect id="rect3746" width="9.962" height="8.998" x="13.538" y="29.502" rx="1.313" ry="1.313" style="opacity:1;fill:#eeeeec;fill-opacity:1;stroke:#888a85;stroke-width:1.00000036;stroke-linecap:round;stroke-linejoin:round;stroke-miterlimit:4;stroke-dasharray:none;stroke-dashoffset:0;stroke-opacity:1"/><rect id="rect2262" width="7.998" height="7.014" x="14.466" y="30.43" rx="0" ry="0" style="opacity:1;fill:none;fill-opacity:1;stroke:#fff;stroke-width:1.00000036;stroke-linecap:round;stroke-linejoin:round;stroke-miterlimit:4;stroke-dasharray:none;stroke-dashoffset:0;stroke-opacity:1"/><rect id="rect3748" width="10" height="3.063" x="13.5" y="29.438" rx="1.313" ry="1.313" style="opacity:1;fill:#729fcf;fill-opacity:1;stroke:#204a87;stroke-width:1;stroke-linecap:round;stroke-linejoin:round;stroke-miterlimit:4;stroke-dasharray:none;stroke-dashoffset:0;stroke-opacity:1"/></g><rect style="opacity:.14509804;fill:#2e3436;fill-opacity:1;stroke:none;stroke-width:1;stroke-linecap:round;stroke-linejoin:round;stroke-miterlimit:4;stroke-dasharray:none;stroke-dashoffset:0;stroke-opacity:1" id="rect3752" width="19" height="5" x="22" y="13" rx=".563" ry=".563"/><rect style="opacity:.6745098;fill:none;fill-opacity:1;stroke:#eeeeec;stroke-width:1.00000048;stroke-linecap:butt;stroke-linejoin:round;stroke-miterlimit:4;stroke-dasharray:none;stroke-dashoffset:0;stroke-opacity:1" id="rect2247" width="47.591" height="21.028" x="-4.591" y="4.51" rx="0" ry="0"/></g></svg>