<svg xmlns="http://www.w3.org/2000/svg" xmlns:cc="http://web.resource.org/cc/" xmlns:svg="http://www.w3.org/2000/svg" xmlns:xlink="http://www.w3.org/1999/xlink" id="svg2" width="32" height="32" version="1.0"><defs id="defs4"><linearGradient id="linearGradient2852"><stop style="stop-color:black;stop-opacity:1" id="stop2854" offset="0"/><stop style="stop-color:black;stop-opacity:0" id="stop2856" offset="1"/></linearGradient><linearGradient id="linearGradient2842"><stop style="stop-color:#2e3436;stop-opacity:1" id="stop2844" offset="0"/><stop style="stop-color:#555753;stop-opacity:1" id="stop2846" offset="1"/></linearGradient><linearGradient id="linearGradient2826"><stop style="stop-color:#2e3436;stop-opacity:1" id="stop2828" offset="0"/><stop style="stop-color:#555753;stop-opacity:1" id="stop2830" offset="1"/></linearGradient><linearGradient id="linearGradient2804"><stop style="stop-color:#eeeeec;stop-opacity:1" id="stop2806" offset="0"/><stop style="stop-color:#babdb6;stop-opacity:0" id="stop2808" offset="1"/></linearGradient><linearGradient id="linearGradient2792"><stop style="stop-color:white;stop-opacity:1" id="stop2794" offset="0"/><stop style="stop-color:#d3d7cf;stop-opacity:1" id="stop2796" offset="1"/></linearGradient><linearGradient id="linearGradient2778"><stop style="stop-color:#d3d7cf;stop-opacity:1" id="stop2780" offset="0"/><stop style="stop-color:#555753;stop-opacity:1" id="stop2782" offset="1"/></linearGradient><radialGradient id="radialGradient2784" cx="7.731" cy="6.922" r="13.979" fx="7.731" fy="6.922" gradientTransform="matrix(1.715326,0,-1.462351e-6,1.368654,-5.935835,-2.694826)" gradientUnits="userSpaceOnUse" xlink:href="#linearGradient2778"/><radialGradient id="radialGradient2798" cx="16.962" cy="23.891" r="14.065" fx="16.962" fy="23.891" gradientTransform="matrix(2.57113,1.6738e-6,0,2.461325,-24.47562,-35.11938)" gradientUnits="userSpaceOnUse" xlink:href="#linearGradient2792"/><radialGradient id="radialGradient2810" cx="15.618" cy="14.602" r=".994" fx="15.618" fy="14.602" gradientTransform="matrix(2.754987,0,-2.276037e-6,1.967286,-27.40936,-14.08732)" gradientUnits="userSpaceOnUse" xlink:href="#linearGradient2804"/><linearGradient id="linearGradient2832" x1="5.111" x2="-1.169" y1="25.435" y2="4.555" gradientUnits="userSpaceOnUse" xlink:href="#linearGradient2826"/><linearGradient id="linearGradient2848" x1="6.764" x2="31.357" y1="6.689" y2="40.582" gradientUnits="userSpaceOnUse" xlink:href="#linearGradient2842"/><radialGradient id="radialGradient2858" cx="15.777" cy="18.275" r="13.479" fx="15.777" fy="18.275" gradientUnits="userSpaceOnUse" xlink:href="#linearGradient2852"/></defs><metadata id="metadata7"/><g id="layer1"><path style="opacity:1;fill:url(#radialGradient2858);fill-opacity:1;stroke:none;stroke-width:1;stroke-linecap:round;stroke-linejoin:miter;stroke-miterlimit:4;stroke-dasharray:none;stroke-opacity:1" id="path2850" d="M 29.256543 17.018175 A 13.479223 13.479223 0 1 1 2.2980967,17.018175 A 13.479223 13.479223 0 1 1 29.256543 17.018175 z" transform="matrix(-1.112824,0,0,1.094277,34.05738,-2.372594)"/><path style="opacity:1;fill:url(#radialGradient2784);fill-opacity:1;stroke:url(#linearGradient2832);stroke-width:1;stroke-linecap:round;stroke-linejoin:miter;stroke-miterlimit:4;stroke-dasharray:none;stroke-opacity:1" id="path1862" d="M 29.256543 17.018175 A 13.479223 13.479223 0 1 1 2.2980967,17.018175 A 13.479223 13.479223 0 1 1 29.256543 17.018175 z" transform="translate(0.201903,-1.997398)"/><path style="opacity:1;fill:url(#radialGradient2798);fill-opacity:1;stroke:url(#linearGradient2848);stroke-width:1.17175221;stroke-linecap:round;stroke-linejoin:miter;stroke-miterlimit:4;stroke-dasharray:none;stroke-opacity:1" id="path2752" d="M 29.256543 17.018175 A 13.479223 13.479223 0 1 1 2.2980967,17.018175 A 13.479223 13.479223 0 1 1 29.256543 17.018175 z" transform="matrix(0.853681,0,0,0.853165,2.538159,0.48069)"/><g id="g1902" transform="translate(0.5,2)" style="opacity:.2"><path id="path1898" d="M 15,14 L 23,7 L 17,16 L 13,18 L 15,14 z" style="fill:#000;fill-opacity:1;fill-rule:evenodd;stroke:none;stroke-width:1px;stroke-linecap:butt;stroke-linejoin:miter;stroke-opacity:1"/><path id="path1900" d="M 15,16 L 21,20 L 17,14 L 13,12 L 15,16 z" style="fill:#000;fill-opacity:1;fill-rule:evenodd;stroke:none;stroke-width:1px;stroke-linecap:butt;stroke-linejoin:miter;stroke-opacity:1"/></g><path style="opacity:1;fill:none;fill-opacity:1;stroke:#c8cec3;stroke-width:.37329552;stroke-linecap:round;stroke-linejoin:miter;stroke-miterlimit:4;stroke-dasharray:none;stroke-opacity:1" id="path2790" d="M 17.5625 10.75 A 3.5625 4.3125 0 1 1 10.4375,10.75 A 3.5625 4.3125 0 1 1 17.5625 10.75 z" transform="matrix(2.947368,0,0,2.434783,-25.26315,-11.17391)"/><path style="fill:#000;fill-opacity:1;fill-rule:evenodd;stroke:none;stroke-width:1px;stroke-linecap:butt;stroke-linejoin:miter;stroke-opacity:1" id="path2800" d="M 15,14 L 23,7 L 17,16 L 13,18 L 15,14 z"/><path style="fill:#000;fill-opacity:1;fill-rule:evenodd;stroke:none;stroke-width:1px;stroke-linecap:butt;stroke-linejoin:miter;stroke-opacity:1" id="path2802" d="M 15,16 L 21,20 L 17,14 L 13,12 L 15,16 z"/><path style="opacity:1;fill:url(#radialGradient2810);fill-opacity:1;stroke:none;stroke-width:1;stroke-linecap:round;stroke-linejoin:miter;stroke-miterlimit:4;stroke-dasharray:none;stroke-opacity:1" id="path2786" d="M 17.191533 15.16202 A 0.99436891 0.92807764 0 1 1 15.202796,15.16202 A 0.99436891 0.92807764 0 1 1 17.191533 15.16202 z" transform="matrix(1.022222,0,0,1.078416,-0.55881,-1.350115)"/><path style="opacity:1;fill:#eeeeec;fill-opacity:1;stroke:none;stroke-width:1;stroke-linecap:round;stroke-linejoin:miter;stroke-miterlimit:4;stroke-dasharray:none;stroke-opacity:1" id="path2812" d="M 16 14.5 A 0.5 0.5 0 1 1 15,14.5 A 0.5 0.5 0 1 1 16 14.5 z"/></g></svg>