<svg xmlns="http://www.w3.org/2000/svg" xmlns:cc="http://web.resource.org/cc/" xmlns:svg="http://www.w3.org/2000/svg" xmlns:xlink="http://www.w3.org/1999/xlink" id="svg2" width="16" height="16" version="1.0"><defs id="defs4"><linearGradient id="linearGradient4551"><stop style="stop-color:white;stop-opacity:1" id="stop4553" offset="0"/><stop style="stop-color:white;stop-opacity:.38095239" id="stop4555" offset="1"/></linearGradient><linearGradient id="linearGradient3654"><stop style="stop-color:#d3d7cf;stop-opacity:1" id="stop3656" offset="0"/><stop style="stop-color:#eeeeec;stop-opacity:1" id="stop3658" offset="1"/></linearGradient><linearGradient id="linearGradient2840" x1="4" x2="4" y1="6.813" y2="6" gradientTransform="translate(-1,-1)" gradientUnits="userSpaceOnUse" xlink:href="#linearGradient4551"/><linearGradient id="linearGradient2842" x1="11.813" x2="11" y1="15.375" y2="4" gradientTransform="translate(-1,0)" gradientUnits="userSpaceOnUse" xlink:href="#linearGradient3654"/></defs><metadata id="metadata7"/><g id="layer1"><path style="fill:url(#linearGradient2842);fill-opacity:1;stroke:#888a85;stroke-width:1;stroke-linecap:round;stroke-linejoin:miter;stroke-miterlimit:4;stroke-dasharray:none;stroke-dashoffset:1.20000057;stroke-opacity:1" id="rect1879" d="M 2.46875,3.5 C 1.9246428,3.5 1.5,3.9246428 1.5,4.46875 L 1.5,13.53125 C 1.5,14.075357 1.9246428,14.5 2.46875,14.5 L 10.5625,14.5 L 7.28125,11.21875 L 6.59375,10.5 L 7.28125,9.78125 L 8.5625,8.5 L 6.28125,6.21875 L 5.59375,5.5 L 6.28125,4.78125 L 7.5625,3.5 L 2.46875,3.5 z M 10.4375,3.5 L 8.4375,5.5 L 10.71875,7.78125 L 11.40625,8.5 L 10.71875,9.21875 L 9.4375,10.5 L 13.4375,14.5 L 14.53125,14.5 C 15.075357,14.5 15.5,14.075357 15.5,13.53125 L 15.5,4.46875 C 15.5,3.9246428 15.075357,3.5 14.53125,3.5 L 10.4375,3.5 z"/><path style="fill:#3465a4;fill-opacity:1;stroke:#204a87;stroke-width:1;stroke-linecap:round;stroke-linejoin:miter;stroke-miterlimit:4;stroke-dasharray:none;stroke-dashoffset:1.20000057;stroke-opacity:1" id="rect3651" d="M 7.03125,4.03125 L 9.5625,1.5 L 2.46875,1.5 C 1.9246428,1.5 1.5,1.9246428 1.5,2.46875 L 1.5,4.03125 M 15.5,4.03125 L 15.5,2.46875 C 15.5,1.9246428 15.075357,1.5 14.53125,1.5 L 12.4375,1.5 L 9.90625,4.03125"/><path style="fill:none;fill-opacity:1;stroke:url(#linearGradient2840);stroke-width:.99999964;stroke-linecap:round;stroke-linejoin:miter;stroke-miterlimit:4;stroke-dashoffset:1.20000057;stroke-opacity:1" id="rect3662" d="M 2.5625,2.5 C 2.5254351,2.5 2.5,2.5254349 2.5,2.5625 L 2.5,13.4375 C 2.5,13.474565 2.5254352,13.499999 2.5625,13.5 L 8.1875,13.5 L 5.15625,10.5 L 7.1875,8.5 L 4.15625,5.5 L 7.1875,2.5 L 2.5625,2.5 z M 12.8125,2.5 L 9.8125,5.5 L 12.84375,8.5 L 10.8125,10.5 L 13.8125,13.5 L 14.4375,13.5 C 14.474565,13.5 14.5,13.474564 14.5,13.4375 L 14.5,2.5625 C 14.5,2.525435 14.474566,2.5 14.4375,2.5 L 12.8125,2.5 z"/></g></svg>