<svg xmlns="http://www.w3.org/2000/svg" xmlns:cc="http://web.resource.org/cc/" xmlns:svg="http://www.w3.org/2000/svg" xmlns:xlink="http://www.w3.org/1999/xlink" id="svg2" width="16" height="16" version="1.0"><defs id="defs4"><linearGradient id="linearGradient4087"><stop id="stop4089" offset="0" style="stop-color:white;stop-opacity:1"/><stop id="stop4091" offset="1" style="stop-color:#888a85;stop-opacity:1"/></linearGradient><linearGradient id="linearGradient3216"><stop style="stop-color:#eeeeec;stop-opacity:1" id="stop3218" offset="0"/><stop style="stop-color:#d3d7cf;stop-opacity:1" id="stop3220" offset="1"/></linearGradient><linearGradient id="linearGradient3194"><stop style="stop-color:#888a85;stop-opacity:1" id="stop3196" offset="0"/><stop style="stop-color:#babdb6;stop-opacity:1" id="stop3198" offset="1"/></linearGradient><linearGradient id="linearGradient2200" x1="15.109" x2="14.537" y1="17.619" y2="10.762" gradientTransform="matrix(0.681914,0,0,0.665931,-6.299261,-5.85234)" gradientUnits="userSpaceOnUse" xlink:href="#linearGradient3194"/><radialGradient id="radialGradient3222" cx="9.783" cy="9.72" r="9.594" fx="9.783" fy="9.72" gradientTransform="matrix(0.938557,0,-2.503875e-5,0.575512,-1.181366,-1.593911)" gradientUnits="userSpaceOnUse" xlink:href="#linearGradient3216"/><linearGradient id="linearGradient4081" x1="5.774" x2="11.213" y1="15.406" y2="15.406" gradientUnits="userSpaceOnUse" xlink:href="#linearGradient4087"/><linearGradient id="linearGradient4083" x1="5.774" x2="11.213" y1="15.406" y2="15.406" gradientUnits="userSpaceOnUse" xlink:href="#linearGradient4087"/><linearGradient id="linearGradient4085" x1="5.774" x2="11.213" y1="15.406" y2="15.406" gradientUnits="userSpaceOnUse" xlink:href="#linearGradient4087"/><linearGradient id="linearGradient4248" x1="5.774" x2="15.369" y1="15.406" y2="15.406" gradientUnits="userSpaceOnUse" xlink:href="#linearGradient4087"/><linearGradient id="linearGradient4250" x1="5.774" x2="13.091" y1="15.406" y2="15.406" gradientUnits="userSpaceOnUse" xlink:href="#linearGradient4087"/><linearGradient id="linearGradient4252" x1="5.774" x2="11.213" y1="15.406" y2="15.406" gradientUnits="userSpaceOnUse" xlink:href="#linearGradient4087"/><linearGradient id="linearGradient4255" x1="5.774" x2="11.213" y1="15.406" y2="15.406" gradientTransform="matrix(0.835044,0,0,1,0.896998,-4)" gradientUnits="userSpaceOnUse" xlink:href="#linearGradient4087"/><linearGradient id="linearGradient4258" x1="5.774" x2="13.091" y1="15.406" y2="15.406" gradientTransform="matrix(0.835044,0,0,1,0.896998,-4)" gradientUnits="userSpaceOnUse" xlink:href="#linearGradient4087"/><linearGradient id="linearGradient4262" x1="5.774" x2="15.369" y1="15.406" y2="15.406" gradientTransform="matrix(0.835044,0,0,1,0.896998,-4)" gradientUnits="userSpaceOnUse" xlink:href="#linearGradient4087"/></defs><metadata id="metadata7"/><g id="layer2" style="display:inline"><g id="g4046" transform="matrix(0.835044,0,0,1,0.896998,-4)" style="stroke:#555753"><path id="path4028" d="M 5.4999998,14.5 C 5.4999998,13 7.1573931,12.5 9,12.5 C 10,12.5 11.5,12.5 11.5,13" style="fill:none;fill-opacity:1;stroke:#555753;stroke-width:3.28296995;stroke-linecap:round;stroke-linejoin:miter;stroke-miterlimit:4;stroke-dasharray:none;stroke-opacity:1;display:inline"/><path id="path4030" d="M 5.4999998,11.5 C 5.4999998,10 7.1573931,9.5 9,9.5 C 10,9.5 11.5,9.5 11.5,10" style="fill:none;fill-opacity:1;stroke:#555753;stroke-width:3.28296995;stroke-linecap:round;stroke-linejoin:miter;stroke-miterlimit:4;stroke-dasharray:none;stroke-opacity:1;display:inline"/><path id="path4032" d="M 5.4999998,11.5 C 5.4999998,13 6.7517722,13.5 10.507087,13.5 C 11,13.5 11.5,13.5 11.5,13" style="fill:none;fill-opacity:1;stroke:#555753;stroke-width:3.28296995;stroke-linecap:round;stroke-linejoin:miter;stroke-miterlimit:4;stroke-dasharray:none;stroke-opacity:1;display:inline"/><path id="path4034" d="M 5.4999998,17.5 C 5.4999998,16 7.1573931,15.5 9,15.5 C 10,15.5 11.5,15.5 11.5,16" style="fill:none;fill-opacity:1;stroke:#555753;stroke-width:3.28296995;stroke-linecap:round;stroke-linejoin:miter;stroke-miterlimit:4;stroke-dasharray:none;stroke-opacity:1;display:inline"/><path id="path4036" d="M 5.4999998,14.5 C 5.4999998,16 6.7517722,16.5 10.507087,16.5 C 11,16.5 11.5,16.5 11.5,16" style="fill:none;fill-opacity:1;stroke:#555753;stroke-width:3.28296995;stroke-linecap:round;stroke-linejoin:miter;stroke-miterlimit:4;stroke-dasharray:none;stroke-opacity:1;display:inline"/><path id="path4038" d="M 5.4999998,17.5 C 5.5,18.5 7.5,18.5 8.507087,18.5" style="fill:none;fill-opacity:1;stroke:#555753;stroke-width:3.28296995;stroke-linecap:round;stroke-linejoin:miter;stroke-miterlimit:4;stroke-dasharray:none;stroke-opacity:1;display:inline"/></g><path style="fill:none;fill-opacity:1;stroke:#888a85;stroke-width:1.00000107;stroke-linecap:round;stroke-linejoin:miter;stroke-miterlimit:4;stroke-opacity:1;display:inline" id="path4004" d="M 5.4897398,10.5 C 5.4897398,7.9999789 6.8737362,8.5 8.412394,8.5 C 9.247438,8.5 10.500004,8.5 10.500004,9"/><path style="fill:none;fill-opacity:1;stroke:#888a85;stroke-width:1.00000107;stroke-linecap:round;stroke-linejoin:miter;stroke-miterlimit:4;stroke-opacity:1;display:inline" id="path4016" d="M 5.4897398,7.5 C 5.4897398,6 6.8737362,5.5 8.412394,5.5 C 9.247438,5.5 10.500004,5.5 10.500004,6"/><path style="fill:none;fill-opacity:1;stroke:url(#linearGradient4262);stroke-width:1.00000107;stroke-linecap:round;stroke-linejoin:miter;stroke-miterlimit:4;stroke-opacity:1;display:inline" id="path4006" d="M 5.4897398,7.5 C 5.4897398,10.000021 6.5350249,9.5 9.670878,9.5 C 10.082482,9.5 10.500004,9.5 10.500004,9"/><path style="fill:none;fill-opacity:1;stroke:#888a85;stroke-width:1.00000107;stroke-linecap:round;stroke-linejoin:miter;stroke-miterlimit:4;stroke-opacity:1;display:inline" id="path4008" d="M 5.4897398,13.5 C 5.4897398,10.999979 6.8737362,11.5 8.412394,11.5 C 9.247438,11.5 10.500004,11.5 10.500004,12"/><path style="fill:none;fill-opacity:1;stroke:url(#linearGradient4258);stroke-width:1.00000107;stroke-linecap:round;stroke-linejoin:miter;stroke-miterlimit:4;stroke-opacity:1;display:inline" id="path4010" d="M 5.4897398,10.5 C 5.4897398,13.000021 6.5350249,12.5 9.670878,12.5 C 10.082482,12.5 10.500004,12.5 10.500004,12"/><path style="fill:none;fill-opacity:1;stroke:url(#linearGradient4255);stroke-width:1.00000107;stroke-linecap:round;stroke-linejoin:miter;stroke-miterlimit:4;stroke-opacity:1;display:inline" id="path4014" d="M 5.4897398,13.5 C 5.4897398,15.000035 7,14.5 8.00079,14.5"/><g id="g3960"><path id="rect1880" d="M 0.5,0.5 L 15.5,0.5 L 15.5,6.5 L 0.5,6.5 L 0.5,0.5 z" style="fill:#fff;fill-opacity:1;stroke:url(#linearGradient2200);stroke-width:1.0000006;stroke-linecap:round;stroke-linejoin:round;stroke-miterlimit:4;stroke-opacity:1"/><rect id="rect2768" width="14" height="1" x="1" y="5" style="fill:#babdb6;fill-opacity:1;stroke:none;stroke-width:1;stroke-linecap:round;stroke-linejoin:round;stroke-miterlimit:4;stroke-dasharray:none;stroke-opacity:1"/><rect style="opacity:.5;fill:#ef2929;fill-opacity:1;stroke:none;stroke-width:1;stroke-linecap:round;stroke-linejoin:round;stroke-miterlimit:4;stroke-dasharray:none;stroke-opacity:1;display:inline" id="rect2292" width="1" height="1" x="2" y="1"/><rect style="opacity:.5;fill:#ef2929;fill-opacity:1;stroke:none;stroke-width:1;stroke-linecap:round;stroke-linejoin:round;stroke-miterlimit:4;stroke-dasharray:none;stroke-opacity:1;display:inline" id="rect2296" width="1" height="1" x="4" y="1"/><rect style="opacity:.5;fill:#ef2929;fill-opacity:1;stroke:none;stroke-width:1;stroke-linecap:round;stroke-linejoin:round;stroke-miterlimit:4;stroke-dasharray:none;stroke-opacity:1;display:inline" id="rect2298" width="1" height="1" x="6" y="1"/><rect style="opacity:.5;fill:#ef2929;fill-opacity:1;stroke:none;stroke-width:1;stroke-linecap:round;stroke-linejoin:round;stroke-miterlimit:4;stroke-dasharray:none;stroke-opacity:1;display:inline" id="rect2300" width="1" height="1" x="8" y="1"/><path id="rect3204" d="M 1,2 L 1,4 L 15,4 L 15,2 L 1,2 z" style="opacity:1;fill:url(#radialGradient3222);fill-opacity:1;stroke:none;stroke-width:1;stroke-linecap:round;stroke-linejoin:miter;stroke-miterlimit:4;stroke-dasharray:none;stroke-opacity:1"/><rect style="opacity:.5;fill:#ef2929;fill-opacity:1;stroke:none;stroke-width:1;stroke-linecap:round;stroke-linejoin:round;stroke-miterlimit:4;stroke-dasharray:none;stroke-opacity:1;display:inline" id="rect3785" width="1" height="1" x="10" y="1"/><rect style="opacity:.5;fill:#ef2929;fill-opacity:1;stroke:none;stroke-width:1;stroke-linecap:round;stroke-linejoin:round;stroke-miterlimit:4;stroke-dasharray:none;stroke-opacity:1;display:inline" id="rect3787" width="1" height="1" x="12" y="1"/><rect style="opacity:.5;fill:#ef2929;fill-opacity:1;stroke:none;stroke-width:1;stroke-linecap:round;stroke-linejoin:round;stroke-miterlimit:4;stroke-dasharray:none;stroke-opacity:1;display:inline" id="rect3789" width="1" height="1" x="14" y="1"/><g id="g3805" transform="translate(-1,0)"><rect id="rect3791" width="1" height="1" x="2" y="4" style="opacity:.5;fill:#ef2929;fill-opacity:1;stroke:none;stroke-width:1;stroke-linecap:round;stroke-linejoin:round;stroke-miterlimit:4;stroke-dasharray:none;stroke-opacity:1;display:inline"/><rect id="rect3793" width="1" height="1" x="4" y="4" style="opacity:.5;fill:#ef2929;fill-opacity:1;stroke:none;stroke-width:1;stroke-linecap:round;stroke-linejoin:round;stroke-miterlimit:4;stroke-dasharray:none;stroke-opacity:1;display:inline"/><rect id="rect3795" width="1" height="1" x="6" y="4" style="opacity:.5;fill:#ef2929;fill-opacity:1;stroke:none;stroke-width:1;stroke-linecap:round;stroke-linejoin:round;stroke-miterlimit:4;stroke-dasharray:none;stroke-opacity:1;display:inline"/><rect id="rect3797" width="1" height="1" x="8" y="4" style="opacity:.5;fill:#ef2929;fill-opacity:1;stroke:none;stroke-width:1;stroke-linecap:round;stroke-linejoin:round;stroke-miterlimit:4;stroke-dasharray:none;stroke-opacity:1;display:inline"/><rect id="rect3799" width="1" height="1" x="10" y="4" style="opacity:.5;fill:#ef2929;fill-opacity:1;stroke:none;stroke-width:1;stroke-linecap:round;stroke-linejoin:round;stroke-miterlimit:4;stroke-dasharray:none;stroke-opacity:1;display:inline"/><rect id="rect3801" width="1" height="1" x="12" y="4" style="opacity:.5;fill:#ef2929;fill-opacity:1;stroke:none;stroke-width:1;stroke-linecap:round;stroke-linejoin:round;stroke-miterlimit:4;stroke-dasharray:none;stroke-opacity:1;display:inline"/><rect id="rect3803" width="1" height="1" x="14" y="4" style="opacity:.5;fill:#ef2929;fill-opacity:1;stroke:none;stroke-width:1;stroke-linecap:round;stroke-linejoin:round;stroke-miterlimit:4;stroke-dasharray:none;stroke-opacity:1;display:inline"/></g><path id="path3779" d="M 1.5000005,1.4929091 L 14.500003,1.4929091 L 14.500003,5.5000023 L 1.5000005,5.5000023 L 1.5000005,1.4929091 z" style="opacity:.6;fill:none;fill-opacity:1;stroke:#fff;stroke-width:1.00000012;stroke-linecap:round;stroke-linejoin:miter;stroke-miterlimit:4;stroke-dasharray:none;stroke-opacity:1;display:inline"/><g style="opacity:.7" id="g3837"><rect id="rect3816" width="1" height="1" x="1" y="5" style="opacity:1;fill:#ef2929;fill-opacity:1;stroke:none;stroke-width:1;stroke-linecap:round;stroke-linejoin:round;stroke-miterlimit:4;stroke-dasharray:none;stroke-opacity:1;display:inline"/><rect id="rect3818" width="1" height="1" x="3" y="5" style="opacity:1;fill:#ef2929;fill-opacity:1;stroke:none;stroke-width:1;stroke-linecap:round;stroke-linejoin:round;stroke-miterlimit:4;stroke-dasharray:none;stroke-opacity:1;display:inline"/><rect id="rect3820" width="1" height="1" x="5" y="5" style="opacity:1;fill:#ef2929;fill-opacity:1;stroke:none;stroke-width:1;stroke-linecap:round;stroke-linejoin:round;stroke-miterlimit:4;stroke-dasharray:none;stroke-opacity:1;display:inline"/><rect id="rect3822" width="1" height="1" x="7" y="5" style="opacity:1;fill:#ef2929;fill-opacity:1;stroke:none;stroke-width:1;stroke-linecap:round;stroke-linejoin:round;stroke-miterlimit:4;stroke-dasharray:none;stroke-opacity:1;display:inline"/><rect id="rect3824" width="1" height="1" x="9" y="5" style="opacity:1;fill:#ef2929;fill-opacity:1;stroke:none;stroke-width:1;stroke-linecap:round;stroke-linejoin:round;stroke-miterlimit:4;stroke-dasharray:none;stroke-opacity:1;display:inline"/><rect id="rect3826" width="1" height="1" x="11" y="5" style="opacity:1;fill:#ef2929;fill-opacity:1;stroke:none;stroke-width:1;stroke-linecap:round;stroke-linejoin:round;stroke-miterlimit:4;stroke-dasharray:none;stroke-opacity:1;display:inline"/><rect id="rect3828" width="1" height="1" x="13" y="5" style="opacity:1;fill:#ef2929;fill-opacity:1;stroke:none;stroke-width:1;stroke-linecap:round;stroke-linejoin:round;stroke-miterlimit:4;stroke-dasharray:none;stroke-opacity:1;display:inline"/></g></g></g></svg>