<svg xmlns="http://www.w3.org/2000/svg" xmlns:cc="http://web.resource.org/cc/" xmlns:svg="http://www.w3.org/2000/svg" xmlns:xlink="http://www.w3.org/1999/xlink" id="svg2" width="22" height="22" version="1.0"><defs id="defs4"><linearGradient id="linearGradient3715"><stop style="stop-color:black;stop-opacity:1" id="stop3717" offset="0"/><stop id="stop3723" offset=".735" style="stop-color:black;stop-opacity:.49803922"/><stop style="stop-color:black;stop-opacity:0" id="stop3719" offset="1"/></linearGradient><linearGradient id="linearGradient3695"><stop style="stop-color:#c8cec3;stop-opacity:1" id="stop3697" offset="0"/><stop style="stop-color:white;stop-opacity:1" id="stop3699" offset="1"/></linearGradient><linearGradient id="linearGradient2842"><stop style="stop-color:#2e3436;stop-opacity:1" id="stop2844" offset="0"/><stop style="stop-color:#555753;stop-opacity:1" id="stop2846" offset="1"/></linearGradient><linearGradient id="linearGradient2826"><stop style="stop-color:#2e3436;stop-opacity:1" id="stop2828" offset="0"/><stop style="stop-color:#555753;stop-opacity:1" id="stop2830" offset="1"/></linearGradient><linearGradient id="linearGradient2792"><stop style="stop-color:white;stop-opacity:1" id="stop2794" offset="0"/><stop style="stop-color:#d3d7cf;stop-opacity:1" id="stop2796" offset="1"/></linearGradient><linearGradient id="linearGradient2778"><stop style="stop-color:#d3d7cf;stop-opacity:1" id="stop2780" offset="0"/><stop style="stop-color:#555753;stop-opacity:1" id="stop2782" offset="1"/></linearGradient><radialGradient id="radialGradient2784" cx="7.731" cy="6.922" r="13.979" fx="7.731" fy="6.922" gradientTransform="matrix(2.209528,0,-1.883669e-6,1.762977,-9.75665,-5.424492)" gradientUnits="userSpaceOnUse" xlink:href="#linearGradient2778"/><radialGradient id="radialGradient2798" cx="16.962" cy="23.891" r="14.065" fx="16.962" fy="23.891" gradientTransform="matrix(2.57113,1.6738e-6,0,2.461325,-24.47562,-35.11938)" gradientUnits="userSpaceOnUse" xlink:href="#linearGradient2792"/><linearGradient id="linearGradient2832" x1="4.437" x2="1.105" y1="23.413" y2="9.273" gradientUnits="userSpaceOnUse" xlink:href="#linearGradient2826"/><linearGradient id="linearGradient2848" x1="6.764" x2="31.357" y1="6.689" y2="40.582" gradientUnits="userSpaceOnUse" xlink:href="#linearGradient2842"/><linearGradient id="linearGradient3701" x1="12.41" x2="13.173" y1="6.938" y2="14.292" gradientUnits="userSpaceOnUse" xlink:href="#linearGradient3695"/><radialGradient id="radialGradient3721" cx="15.777" cy="17.937" r="13.479" fx="15.777" fy="17.937" gradientUnits="userSpaceOnUse" xlink:href="#linearGradient3715"/></defs><metadata id="metadata7"/><g id="layer1"><path style="opacity:1;fill:url(#radialGradient3721);fill-opacity:1;stroke:none;stroke-width:1.34792304;stroke-linecap:round;stroke-linejoin:miter;stroke-miterlimit:4;stroke-dasharray:none;stroke-opacity:1" id="path3711" d="M 29.256543 17.018175 A 13.479223 13.479223 0 1 1 2.2980967,17.018175 A 13.479223 13.479223 0 1 1 29.256543 17.018175 z" transform="matrix(0.816071,0,0,0.81607,-1.87541,-2.888037)"/><path style="opacity:1;fill:url(#radialGradient2784);fill-opacity:1;stroke:url(#linearGradient2832);stroke-width:1.34792325;stroke-linecap:round;stroke-linejoin:miter;stroke-miterlimit:4;stroke-dasharray:none;stroke-opacity:1" id="path1862" d="M 29.256543 17.018175 A 13.479223 13.479223 0 1 1 2.2980967,17.018175 A 13.479223 13.479223 0 1 1 29.256543 17.018175 z" transform="matrix(0.741882,0,0,0.741882,-1.204917,-2.125485)"/><path style="opacity:1;fill:url(#radialGradient2798);fill-opacity:1;stroke:url(#linearGradient2848);stroke-width:1.68830855;stroke-linecap:round;stroke-linejoin:miter;stroke-miterlimit:4;stroke-dasharray:none;stroke-opacity:1" id="path2752" d="M 29.256543 17.018175 A 13.479223 13.479223 0 1 1 2.2980967,17.018175 A 13.479223 13.479223 0 1 1 29.256543 17.018175 z" transform="matrix(0.591114,0,0,0.593506,1.141563,0.399609)"/><path style="opacity:1;fill:none;fill-opacity:1;stroke:url(#linearGradient3701);stroke-width:.55994314;stroke-linecap:round;stroke-linejoin:miter;stroke-miterlimit:4;stroke-dasharray:none;stroke-opacity:1" id="path2790" d="M 17.5625 10.75 A 3.5625 4.3125 0 1 1 10.4375,10.75 A 3.5625 4.3125 0 1 1 17.5625 10.75 z" transform="matrix(1.964913,0,0,1.623188,-17.00878,-6.94927)"/><path style="opacity:.2;fill:#000;fill-opacity:1;fill-rule:evenodd;stroke:none;stroke-width:1px;stroke-linecap:butt;stroke-linejoin:miter;stroke-opacity:1" id="path2793" d="M 16,6 L 10.4375,10.625 L 8,9 L 9.65625,11.5 L 8,14 L 10.46875,12.34375 L 14,15 L 11.40625,11.53125 L 16,6 z"/><path style="fill:#000;fill-opacity:1;fill-rule:evenodd;stroke:none;stroke-width:1px;stroke-linecap:butt;stroke-linejoin:miter;stroke-opacity:1" id="path2800" d="M 10,10 L 15.989833,4.9870231 L 11,11 L 8,13 L 10,10 z"/><path style="fill:#000;fill-opacity:1;fill-rule:evenodd;stroke:none;stroke-width:1px;stroke-linecap:butt;stroke-linejoin:miter;stroke-opacity:1" id="path2802" d="M 10,11 L 14.006068,14.006489 L 11,10 L 8,8 L 10,11 z"/><rect style="opacity:1;fill:#fff;fill-opacity:1;stroke:none;stroke-width:3;stroke-linecap:round;stroke-linejoin:round;stroke-miterlimit:4;stroke-dasharray:none;stroke-dashoffset:1.20000057;stroke-opacity:1" id="rect1904" width="1" height="1" x="10" y="10"/></g></svg>