<svg xmlns="http://www.w3.org/2000/svg" xmlns:cc="http://web.resource.org/cc/" xmlns:svg="http://www.w3.org/2000/svg" xmlns:xlink="http://www.w3.org/1999/xlink" id="svg2" width="22" height="22" version="1.0"><defs id="defs4"><linearGradient id="linearGradient3216"><stop style="stop-color:#eeeeec;stop-opacity:1" id="stop3218" offset="0"/><stop style="stop-color:#d3d7cf;stop-opacity:1" id="stop3220" offset="1"/></linearGradient><linearGradient id="linearGradient3062"><stop style="stop-color:#555753;stop-opacity:1" id="stop3064" offset="0"/><stop style="stop-color:#2e3436;stop-opacity:1" id="stop3066" offset="1"/></linearGradient><linearGradient id="linearGradient3281"><stop style="stop-color:#babdb6;stop-opacity:1" id="stop3289" offset="0"/><stop id="stop3291" offset=".092" style="stop-color:#878a84;stop-opacity:1"/><stop style="stop-color:#555753;stop-opacity:1" id="stop3285" offset=".235"/><stop id="stop3293" offset=".724" style="stop-color:#6e706c;stop-opacity:1"/><stop id="stop3287" offset="1" style="stop-color:#888a85;stop-opacity:1"/></linearGradient><linearGradient id="linearGradient3212"><stop style="stop-color:black;stop-opacity:1" id="stop3214" offset="0"/><stop style="stop-color:black;stop-opacity:0" id="stop3216" offset="1"/></linearGradient><linearGradient id="linearGradient3194"><stop style="stop-color:#888a85;stop-opacity:1" id="stop3196" offset="0"/><stop style="stop-color:#babdb6;stop-opacity:1" id="stop3198" offset="1"/></linearGradient><linearGradient id="linearGradient3170"><stop style="stop-color:black;stop-opacity:1" id="stop3172" offset="0"/><stop style="stop-color:black;stop-opacity:0" id="stop3174" offset="1"/></linearGradient><linearGradient id="linearGradient3065"><stop id="stop3067" offset="0" style="stop-color:#babdb6;stop-opacity:1"/><stop style="stop-color:white;stop-opacity:1" id="stop3069" offset=".237"/><stop id="stop3259" offset=".687" style="stop-color:#dfe0df;stop-opacity:1"/><stop id="stop3071" offset="1" style="stop-color:#888a85;stop-opacity:1"/></linearGradient><linearGradient id="linearGradient3055"><stop id="stop3057" offset="0" style="stop-color:#555753;stop-opacity:0"/><stop style="stop-color:#555753;stop-opacity:1" id="stop3059" offset=".101"/><stop style="stop-color:#555753;stop-opacity:1" id="stop3061" offset=".893"/><stop id="stop3063" offset="1" style="stop-color:#555753;stop-opacity:0"/></linearGradient><linearGradient id="linearGradient2914"><stop style="stop-color:#888a85;stop-opacity:1" id="stop2916" offset="0"/><stop id="stop2922" offset=".262" style="stop-color:white;stop-opacity:1"/><stop style="stop-color:white;stop-opacity:1" id="stop3257" offset=".473"/><stop style="stop-color:#555753;stop-opacity:1" id="stop2918" offset="1"/></linearGradient><linearGradient id="linearGradient3068" x1="24.125" x2="35.965" y1="17.438" y2="17.438" gradientUnits="userSpaceOnUse" xlink:href="#linearGradient3062"/><linearGradient id="linearGradient2040" x1="24.125" x2="35.965" y1="17.438" y2="17.438" gradientUnits="userSpaceOnUse" xlink:href="#linearGradient3062"/><linearGradient id="linearGradient2042" x1="24.125" x2="35.965" y1="17.438" y2="17.438" gradientUnits="userSpaceOnUse" xlink:href="#linearGradient3062"/><linearGradient id="linearGradient2044" x1="24.125" x2="35.965" y1="17.438" y2="17.438" gradientUnits="userSpaceOnUse" xlink:href="#linearGradient3062"/><linearGradient id="linearGradient2046" x1="24.125" x2="35.965" y1="17.438" y2="17.438" gradientUnits="userSpaceOnUse" xlink:href="#linearGradient3062"/><linearGradient id="linearGradient2048" x1="24.125" x2="35.965" y1="17.438" y2="17.438" gradientUnits="userSpaceOnUse" xlink:href="#linearGradient3062"/><linearGradient id="linearGradient2050" x1="24.125" x2="35.965" y1="17.438" y2="17.438" gradientUnits="userSpaceOnUse" xlink:href="#linearGradient3062"/><linearGradient id="linearGradient2052" x1="24.125" x2="35.965" y1="17.438" y2="17.438" gradientUnits="userSpaceOnUse" xlink:href="#linearGradient3062"/><linearGradient id="linearGradient2060" x1="17.812" x2="22.156" y1="28.187" y2="31.062" gradientUnits="userSpaceOnUse" xlink:href="#linearGradient3055"/><linearGradient id="linearGradient2062" x1="17.237" x2="19.007" y1="23.558" y2="27" gradientUnits="userSpaceOnUse" xlink:href="#linearGradient3055"/><linearGradient id="linearGradient2064" x1="17.875" x2="19.344" y1="18.594" y2="22.469" gradientUnits="userSpaceOnUse" xlink:href="#linearGradient3055"/><radialGradient id="radialGradient2146" cx="22.743" cy="14.5" r="14.257" fx="22.743" fy="14.5" gradientTransform="matrix(1,0,0,0.385766,0,8.906398)" gradientUnits="userSpaceOnUse" xlink:href="#linearGradient3212"/><linearGradient id="linearGradient2200" x1="15.25" x2="13.438" y1="20" y2="11.231" gradientTransform="matrix(0.681914,0,0,0.665931,-5.299261,-3.85234)" gradientUnits="userSpaceOnUse" xlink:href="#linearGradient3194"/><radialGradient id="radialGradient2203" cx="42.188" cy="20.617" r="8" fx="42.188" fy="20.617" gradientTransform="matrix(-3.762127e-6,0.584536,-1.58854,0,43.84386,-16.16639)" gradientUnits="userSpaceOnUse" xlink:href="#linearGradient3170"/><linearGradient id="linearGradient2206" x1="16.672" x2="30.604" y1="23.782" y2="23.782" gradientTransform="matrix(0.620337,0,0,0.554942,-3.828546,-0.763159)" gradientUnits="userSpaceOnUse" xlink:href="#linearGradient2914"/><linearGradient id="linearGradient2209" x1="17.985" x2="30.604" y1="23.782" y2="23.782" gradientTransform="matrix(0.620337,0,0,0.52852,-3.828546,-0.327224)" gradientUnits="userSpaceOnUse" xlink:href="#linearGradient3065"/><linearGradient id="linearGradient2212" x1="17.985" x2="30.604" y1="23.782" y2="23.782" gradientTransform="matrix(0.620337,0,0,0.739923,-3.828546,-6.03511)" gradientUnits="userSpaceOnUse" xlink:href="#linearGradient3065"/><linearGradient id="linearGradient2215" x1="17.985" x2="30.604" y1="23.782" y2="23.782" gradientTransform="matrix(0.620337,0,0,0.739923,-3.828546,-6.03511)" gradientUnits="userSpaceOnUse" xlink:href="#linearGradient3065"/><linearGradient id="linearGradient2222" x1="18.625" x2="26.25" y1="31.929" y2="31.304" gradientTransform="matrix(0.620337,0,0,0.57344,-3.828546,-1.456836)" gradientUnits="userSpaceOnUse" xlink:href="#linearGradient3281"/><linearGradient id="linearGradient2225" x1="18.344" x2="28.125" y1="22.429" y2="20.054" gradientTransform="matrix(0.620337,0,0,0.739923,-3.828546,-6.03511)" gradientUnits="userSpaceOnUse" xlink:href="#linearGradient3281"/><linearGradient id="linearGradient2228" x1="18.094" x2="26.563" y1="26.241" y2="25.616" gradientTransform="matrix(0.620337,0,0,0.739923,-3.828546,-6.03511)" gradientUnits="userSpaceOnUse" xlink:href="#linearGradient3281"/><radialGradient id="radialGradient3222" cx="12.124" cy="10.148" r="9.594" fx="12.124" fy="10.148" gradientTransform="matrix(1.460391,0,-3.89602e-5,0.895494,-5.286169,-2.704103)" gradientUnits="userSpaceOnUse" xlink:href="#linearGradient3216"/><radialGradient id="radialGradient3252" cx="22.743" cy="14.5" r="14.257" fx="22.743" fy="14.5" gradientTransform="matrix(1,0,0,0.385766,0,8.906398)" gradientUnits="userSpaceOnUse" xlink:href="#linearGradient3212"/></defs><metadata id="metadata7"/><g id="layer2" style="display:inline"><path style="opacity:.2;fill:url(#radialGradient3252);fill-opacity:1;stroke:none;stroke-width:1;stroke-linecap:round;stroke-linejoin:miter;stroke-miterlimit:4;stroke-dasharray:none;stroke-opacity:1;display:inline" id="path3250" d="M 37.000002 14.5 A 14.25736 5.5 0 1 1 8.485281,14.5 A 14.25736 5.5 0 1 1 37.000002 14.5 z" transform="matrix(0.4033,0,0,0.380165,1.82788,12.4876)"/><path style="opacity:.2;fill:url(#radialGradient2146);fill-opacity:1;stroke:none;stroke-width:1;stroke-linecap:round;stroke-linejoin:miter;stroke-miterlimit:4;stroke-dasharray:none;stroke-opacity:1;display:inline" id="path3202" d="M 37.000002 14.5 A 14.25736 5.5 0 1 1 8.485281,14.5 A 14.25736 5.5 0 1 1 37.000002 14.5 z" transform="matrix(0.771531,0,0,0.727273,-6.546662,7.45454)"/><g id="g2246" transform="matrix(0.878863,0,0,1.049188,1.291156,-0.951012)"><g style="fill-opacity:1;stroke:url(#linearGradient3068);stroke-width:4.25397158;stroke-miterlimit:4;stroke-dasharray:none;stroke-opacity:1;display:inline" id="g2167" transform="matrix(0.728942,0,0,0.739923,-10.80159,-0.115726)"><path style="fill:none;fill-opacity:1;stroke:url(#linearGradient2040);stroke-width:4.25397158;stroke-linecap:round;stroke-linejoin:miter;stroke-miterlimit:4;stroke-dasharray:none;stroke-opacity:1;display:inline" id="path2139" d="M 24.458661,19 C 24.458661,17 26.586186,15.5 30.415731,15.5 C 33.527875,15.5 35.521791,15.948 35.521791,16.5"/><path style="fill:none;fill-opacity:1;stroke:url(#linearGradient2042);stroke-width:4.25397158;stroke-linecap:round;stroke-linejoin:miter;stroke-miterlimit:4;stroke-dasharray:none;stroke-opacity:1;display:inline" id="path2141" d="M 24.458661,14.5 C 24.458661,12.5 26.586186,11.5 30.415731,11.5 C 33.527875,11.5 35.521791,11.948 35.521791,12.5"/><path style="fill:none;fill-opacity:1;stroke:url(#linearGradient2044);stroke-width:4.25397158;stroke-linecap:round;stroke-linejoin:miter;stroke-miterlimit:4;stroke-dasharray:none;stroke-opacity:1;display:inline" id="path2143" d="M 25.309671,23.375 C 25.309671,21.05 27.011691,19.5 30.808507,19.5 C 33.681255,19.5 35.521794,19.8875 35.521794,20.6625"/><path style="fill:none;fill-opacity:1;stroke:url(#linearGradient2046);stroke-width:4.25397158;stroke-linecap:round;stroke-linejoin:miter;stroke-miterlimit:4;stroke-dasharray:none;stroke-opacity:1;display:inline" id="path2145" d="M 35.521778,12.5 C 35.521778,13.5 31.965774,13.5 30.780439,13.499984 C 27.290813,13.499937 24.458653,11.931985 24.458653,9.999986"/><path style="fill:none;fill-opacity:1;stroke:url(#linearGradient2048);stroke-width:4.25397158;stroke-linecap:round;stroke-linejoin:miter;stroke-miterlimit:4;stroke-dasharray:none;stroke-opacity:1;display:inline" id="path2147" d="M 35.521778,16.5 C 35.521778,17.5 31.965774,17.5 30.780439,17.499984 C 27.290813,17.499937 24.458661,16.431999 24.458661,14.5"/><path style="fill:none;fill-opacity:1;stroke:url(#linearGradient2050);stroke-width:4.25397158;stroke-linecap:round;stroke-linejoin:miter;stroke-miterlimit:4;stroke-dasharray:none;stroke-opacity:1;display:inline" id="path2149" d="M 35.521791,20.428572 C 35.521791,21.500007 31.965774,21.500007 30.780439,21.499996 C 27.290813,21.499962 24.458653,20.37999 24.458653,18.999982"/><path style="fill:none;fill-opacity:1;stroke:url(#linearGradient2052);stroke-width:4.25397158;stroke-linecap:round;stroke-linejoin:miter;stroke-miterlimit:4;stroke-dasharray:none;stroke-opacity:1;display:inline" id="path2151" d="M 25.309671,23.5 C 25.309671,25.75 27.437196,26.5 30.658868,26.499988 L 31.266741,26.5"/></g><path id="path2857" d="M 7.0273503,13.942811 C 7.0273503,12.462965 8.5781926,11.353081 11.369709,11.353081 C 13.638281,11.353081 15.09173,11.684566 15.09173,12.093004" style="fill:none;fill-opacity:1;stroke:url(#linearGradient2228);stroke-width:1.04138887;stroke-linecap:round;stroke-linejoin:miter;stroke-miterlimit:4;stroke-opacity:1;display:inline"/><path id="path2871" d="M 7.0273503,10.613157 C 7.0273503,9.1333115 8.5781926,8.3933885 11.369709,8.3933885 C 13.638281,8.3933885 15.09173,8.724874 15.09173,9.1333115" style="fill:none;fill-opacity:1;stroke:url(#linearGradient2225);stroke-width:1.04138887;stroke-linecap:round;stroke-linejoin:miter;stroke-miterlimit:4;stroke-opacity:1;display:inline"/><path id="path2873" d="M 7.6476872,17.179974 C 7.6476872,15.459653 8.8883611,14.312772 11.65602,14.312772 C 13.750086,14.312772 15.091733,14.599493 15.091733,15.172933" style="fill:none;fill-opacity:1;stroke:url(#linearGradient2222);stroke-width:1.04138899;stroke-linecap:round;stroke-linejoin:miter;stroke-miterlimit:4;stroke-dasharray:none;stroke-opacity:1;display:inline"/><g style="opacity:.8;display:inline" id="g3081" transform="matrix(0.620337,0,0,0.692187,-3.828543,-5.247463)"><path style="fill:none;fill-opacity:1;stroke:url(#linearGradient2060);stroke-width:4.76769781;stroke-linecap:round;stroke-linejoin:miter;stroke-miterlimit:4;stroke-dasharray:none;stroke-opacity:1;display:inline" id="path3023" d="M 30.5,29 C 30.5,30.5 26.321416,30.5 24.928559,30.499984 C 20.827989,30.499937 17.499991,28.931985 17.499991,26.999986"/><path style="fill:none;fill-opacity:1;stroke:url(#linearGradient2062);stroke-width:4.76769781;stroke-linecap:round;stroke-linejoin:miter;stroke-miterlimit:4;stroke-dasharray:none;stroke-opacity:1;display:inline" id="path3021" d="M 30.499985,24.5 C 30.499985,25.5 26.321416,25.5 24.928559,25.499984 C 20.827989,25.499937 17.5,24.431999 17.5,22.5"/><path style="fill:none;fill-opacity:1;stroke:url(#linearGradient2064);stroke-width:4.76769781;stroke-linecap:round;stroke-linejoin:miter;stroke-miterlimit:4;stroke-dasharray:none;stroke-opacity:1;display:inline" id="path3019" d="M 30.499985,20.5 C 30.499985,21.5 26.321416,21.5 24.928559,21.499984 C 20.827989,21.499937 17.499991,19.931985 17.499991,17.999986"/></g><path id="path2869" d="M 15.091721,9.1333115 C 15.091721,9.8732345 12.4996,9.8732345 11.63556,9.8732227 C 9.0918248,9.8731879 7.0273444,8.7130241 7.0273444,7.2834936" style="fill:none;fill-opacity:1;stroke:url(#linearGradient2215);stroke-width:1.04138851;stroke-linecap:round;stroke-linejoin:miter;stroke-miterlimit:4;stroke-opacity:1;display:inline"/><path id="path2852" d="M 15.091721,12.093004 C 15.091721,12.832926 12.4996,12.832926 11.63556,12.832915 C 9.0918248,12.83288 7.0273503,12.042688 7.0273503,10.613157" style="fill:none;fill-opacity:1;stroke:url(#linearGradient2212);stroke-width:1.04138851;stroke-linecap:round;stroke-linejoin:miter;stroke-miterlimit:4;stroke-opacity:1;display:inline"/><path id="path2867" d="M 15.09173,14.999844 C 15.09173,15.792624 12.4996,15.792624 11.63556,15.792616 C 9.0918248,15.79259 7.0273444,14.963897 7.0273444,13.942798" style="fill:none;fill-opacity:1;stroke:url(#linearGradient2209);stroke-width:1.04138827;stroke-linecap:round;stroke-linejoin:miter;stroke-miterlimit:4;stroke-opacity:1;display:inline"/><path id="path2875" d="M 7.6476872,17.272465 C 7.6476872,18.937291 9.1985295,19.492234 11.546942,19.492225 L 11.990046,19.492234" style="fill:none;fill-opacity:1;stroke:url(#linearGradient2206);stroke-width:1.04138851;stroke-linecap:round;stroke-linejoin:miter;stroke-miterlimit:4;stroke-opacity:1;display:inline"/><path id="path2885" d="M 7.0079648,6.1504969 C 6.4940352,6.1631962 6.0860777,6.6705037 6.0968449,7.283504 C 6.0968449,7.9358675 6.2956682,8.486328 6.6202544,8.9483308 C 6.2954466,9.4198304 6.0968449,9.9897346 6.0968449,10.613157 C 6.0956582,10.713223 6.1152251,10.819407 6.1356158,10.913751 C 6.1950917,11.39907 6.3661459,11.860562 6.6202544,12.208616 C 6.2951411,12.710746 6.0968449,13.302522 6.0968449,13.942811 C 6.0968449,14.514514 6.2823278,14.99844 6.5427117,15.422657 L 16.022236,15.422657 C 16.022236,15.30143 16.007314,15.19054 15.983465,15.075818 C 15.977349,15.053046 15.971378,15.028583 15.964079,15.00645 C 15.862406,14.597704 15.63485,14.239206 15.401899,14.035301 C 15.194309,13.853596 14.973098,13.732628 14.742791,13.642217 C 14.820665,13.617453 14.899306,13.603724 14.975417,13.57285 C 15.166489,13.495343 15.366215,13.407965 15.576369,13.202888 C 15.733984,13.04908 15.90732,12.771287 15.983465,12.439842 C 16.011742,12.331742 16.023079,12.210465 16.022236,12.093004 C 16.022236,11.982094 16.005259,11.867245 15.983465,11.769287 C 15.971986,11.719708 15.96165,11.677331 15.944694,11.630552 C 15.870041,11.409302 15.754162,11.231137 15.653911,11.121855 C 15.490891,10.944149 15.333634,10.849749 15.188658,10.775016 C 15.086954,10.722588 14.984151,10.673696 14.878489,10.63628 C 14.910117,10.62466 14.9441,10.62586 14.975417,10.613157 C 15.166489,10.535651 15.366215,10.448273 15.576369,10.243196 C 15.733984,10.089388 15.90732,9.8115952 15.983465,9.4801504 C 16.011742,9.3720499 16.023079,9.2507728 16.022236,9.1333115 C 16.022236,9.0224022 16.005259,8.9075529 15.983465,8.8095952 C 15.971986,8.7600159 15.96165,8.717639 15.944694,8.6708596 C 15.917795,8.5911396 15.882769,8.5294515 15.847766,8.4627563 C 15.785622,8.3443494 15.71804,8.2320683 15.653911,8.1621626 C 15.490891,7.9844575 15.333634,7.8900574 15.188658,7.8153237 C 14.898706,7.6658563 14.604431,7.5904285 14.238767,7.5147299 C 13.507439,7.3633328 12.541992,7.283504 11.369709,7.283504 C 10.138811,7.283504 9.122132,7.4270172 8.2680241,7.7459559 C 8.0361499,7.5215898 7.9578557,7.3343345 7.9578557,7.283504 C 7.9631682,6.9811137 7.8657619,6.6880828 7.6864582,6.4742132 C 7.5071537,6.2603444 7.2614828,6.1441602 7.0079648,6.1504969 z M 8.1517112,10.196951 C 8.4150751,10.333364 8.6896012,10.466217 8.9852885,10.566912 C 8.697535,10.654716 8.4241825,10.766426 8.1710967,10.890629 C 8.1236696,10.852204 8.0628146,10.807347 8.0353976,10.775016 C 7.9346002,10.65615 7.9578557,10.651899 7.9578557,10.613157 C 7.9578557,10.428177 7.9851385,10.327123 8.1517112,10.196951 z M 8.2098677,13.341624 C 8.518127,13.470345 8.8514146,13.58078 9.1985295,13.66534 C 8.8287992,13.832318 8.4890175,14.051978 8.1904822,14.312772 C 8.0237272,14.127564 7.9578557,13.987229 7.9578557,13.942811 C 7.9578557,13.749271 8.0030136,13.551517 8.2098677,13.341624 z" style="opacity:.41906613;fill:url(#radialGradient2203);fill-opacity:1;stroke:none;stroke-width:3;stroke-linecap:round;stroke-linejoin:miter;stroke-miterlimit:4;stroke-dasharray:none;stroke-opacity:1;display:inline"/></g><path style="fill:#fff;fill-opacity:1;stroke:url(#linearGradient2200);stroke-width:1.0000006;stroke-linecap:round;stroke-linejoin:round;stroke-miterlimit:4;stroke-opacity:1" id="rect1880" d="M 2.5,2.5 L 19.5,2.5 L 21.5,8 L 21.5,9.5 L 0.5,9.5 L 0.5,8 L 2.5,2.5 z"/><rect style="fill:#babdb6;fill-opacity:1;stroke:none;stroke-width:1;stroke-linecap:round;stroke-linejoin:round;stroke-miterlimit:4;stroke-dasharray:none;stroke-opacity:1" id="rect2768" width="20" height="1" x="1" y="8"/><g id="g2304" transform="translate(0,1)" style="opacity:.5"><rect style="opacity:1;fill:#ef2929;fill-opacity:1;stroke:none;stroke-width:1;stroke-linecap:round;stroke-linejoin:round;stroke-miterlimit:4;stroke-dasharray:none;stroke-opacity:1;display:inline" id="rect2280" width="1" height="1" x="6" y="6"/><rect style="opacity:1;fill:#ef2929;fill-opacity:1;stroke:none;stroke-width:1;stroke-linecap:round;stroke-linejoin:round;stroke-miterlimit:4;stroke-dasharray:none;stroke-opacity:1;display:inline" id="rect2282" width="1" height="1" x="3" y="6"/><rect style="opacity:1;fill:#ef2929;fill-opacity:1;stroke:none;stroke-width:1;stroke-linecap:round;stroke-linejoin:round;stroke-miterlimit:4;stroke-dasharray:none;stroke-opacity:1;display:inline" id="rect2284" width="1" height="1" x="9" y="6"/><rect style="opacity:1;fill:#ef2929;fill-opacity:1;stroke:none;stroke-width:1;stroke-linecap:round;stroke-linejoin:round;stroke-miterlimit:4;stroke-dasharray:none;stroke-opacity:1;display:inline" id="rect2286" width="1" height="1" x="12" y="6"/><rect style="opacity:1;fill:#ef2929;fill-opacity:1;stroke:none;stroke-width:1;stroke-linecap:round;stroke-linejoin:round;stroke-miterlimit:4;stroke-dasharray:none;stroke-opacity:1;display:inline" id="rect2288" width="1" height="1" x="15" y="6"/><rect style="opacity:1;fill:#ef2929;fill-opacity:1;stroke:none;stroke-width:1;stroke-linecap:round;stroke-linejoin:round;stroke-miterlimit:4;stroke-dasharray:none;stroke-opacity:1;display:inline" id="rect2290" width="1" height="1" x="18" y="6"/></g><g id="g2312" transform="translate(0,1)" style="opacity:.5"><rect style="opacity:1;fill:#ef2929;fill-opacity:1;stroke:none;stroke-width:1;stroke-linecap:round;stroke-linejoin:round;stroke-miterlimit:4;stroke-dasharray:none;stroke-opacity:1;display:inline" id="rect2292" width="1" height="1" x="4" y="2"/><rect style="opacity:1;fill:#ef2929;fill-opacity:1;stroke:none;stroke-width:1;stroke-linecap:round;stroke-linejoin:round;stroke-miterlimit:4;stroke-dasharray:none;stroke-opacity:1;display:inline" id="rect2296" width="1" height="1" x="7" y="2"/><rect style="opacity:1;fill:#ef2929;fill-opacity:1;stroke:none;stroke-width:1;stroke-linecap:round;stroke-linejoin:round;stroke-miterlimit:4;stroke-dasharray:none;stroke-opacity:1;display:inline" id="rect2298" width="1" height="1" x="10" y="2"/><rect style="opacity:1;fill:#ef2929;fill-opacity:1;stroke:none;stroke-width:1;stroke-linecap:round;stroke-linejoin:round;stroke-miterlimit:4;stroke-dasharray:none;stroke-opacity:1;display:inline" id="rect2300" width="1" height="1" x="13" y="2"/><rect style="opacity:1;fill:#ef2929;fill-opacity:1;stroke:none;stroke-width:1;stroke-linecap:round;stroke-linejoin:round;stroke-miterlimit:4;stroke-dasharray:none;stroke-opacity:1;display:inline" id="rect2302" width="1" height="1" x="16" y="2"/></g><path style="opacity:1;fill:url(#radialGradient3222);fill-opacity:1;stroke:none;stroke-width:1;stroke-linecap:round;stroke-linejoin:miter;stroke-miterlimit:4;stroke-dasharray:none;stroke-opacity:1" id="rect3204" d="M 2.46875,4 L 1.40625,7 L 20.59375,7 L 19.53125,4 L 2.46875,4 z"/><path style="opacity:.5;fill:none;fill-opacity:1;stroke:#fff;stroke-width:1;stroke-linecap:round;stroke-linejoin:miter;stroke-miterlimit:4;stroke-dasharray:none;stroke-opacity:1;display:inline" id="path3233" d="M 3.1875,2.5 L 1.5,7.1875 L 1.5,7.5 L 20.5,7.5 L 20.5,7.1875 L 18.8125,2.5 L 3.1875,2.5 z" transform="translate(0,1)"/><g style="opacity:.7;display:inline" id="g3235" transform="translate(0,1)"><rect style="opacity:1;fill:#ef2929;fill-opacity:1;stroke:none;stroke-width:1;stroke-linecap:round;stroke-linejoin:round;stroke-miterlimit:4;stroke-dasharray:none;stroke-opacity:1;display:inline" id="rect2268" width="2" height="1" x="2" y="7"/><rect style="opacity:1;fill:#ef2929;fill-opacity:1;stroke:none;stroke-width:1;stroke-linecap:round;stroke-linejoin:round;stroke-miterlimit:4;stroke-dasharray:none;stroke-opacity:1;display:inline" id="rect2270" width="2" height="1" x="5" y="7"/><rect style="opacity:1;fill:#ef2929;fill-opacity:1;stroke:none;stroke-width:1;stroke-linecap:round;stroke-linejoin:round;stroke-miterlimit:4;stroke-dasharray:none;stroke-opacity:1;display:inline" id="rect2272" width="2" height="1" x="8" y="7"/><rect style="opacity:1;fill:#ef2929;fill-opacity:1;stroke:none;stroke-width:1;stroke-linecap:round;stroke-linejoin:round;stroke-miterlimit:4;stroke-dasharray:none;stroke-opacity:1;display:inline" id="rect2274" width="2" height="1" x="11" y="7"/><rect style="opacity:1;fill:#ef2929;fill-opacity:1;stroke:none;stroke-width:1;stroke-linecap:round;stroke-linejoin:round;stroke-miterlimit:4;stroke-dasharray:none;stroke-opacity:1;display:inline" id="rect2276" width="2" height="1" x="14" y="7"/><rect style="opacity:1;fill:#ef2929;fill-opacity:1;stroke:none;stroke-width:1;stroke-linecap:round;stroke-linejoin:round;stroke-miterlimit:4;stroke-dasharray:none;stroke-opacity:1;display:inline" id="rect2278" width="2" height="1" x="17" y="7"/></g><rect style="opacity:1;fill:#729fcf;fill-opacity:1;stroke:none;stroke-width:1;stroke-linecap:round;stroke-linejoin:miter;stroke-miterlimit:4;stroke-dasharray:none;stroke-opacity:1;display:inline" id="rect3258" width="1" height="1" x="-2" y="0" transform="scale(-1,1)"/><rect style="opacity:1;fill:#729fcf;fill-opacity:1;stroke:none;stroke-width:1;stroke-linecap:round;stroke-linejoin:miter;stroke-miterlimit:4;stroke-dasharray:none;stroke-opacity:1;display:inline" id="rect3260" width="1" height="1" x="-1" y="1" transform="scale(-1,1)"/><path style="fill:none;fill-rule:evenodd;stroke:#729fcf;stroke-width:1px;stroke-linecap:round;stroke-linejoin:miter;stroke-opacity:1" id="path3262" d="M 20.5,0.5 C 21,0.5 21.5,1 21.5,1.5"/><path style="fill:none;fill-rule:evenodd;stroke:#729fcf;stroke-width:1px;stroke-linecap:round;stroke-linejoin:miter;stroke-opacity:1;display:inline" id="path3264" d="M 0.5,1.5 C 0.5,1 1,0.5 1.5,0.5"/><rect style="opacity:1;fill:#729fcf;fill-opacity:1;stroke:none;stroke-width:1;stroke-linecap:round;stroke-linejoin:miter;stroke-miterlimit:4;stroke-dasharray:none;stroke-opacity:1;display:inline" id="rect3268" width="1" height="1" x="-21" y="0" transform="scale(-1,1)"/><rect style="opacity:1;fill:#729fcf;fill-opacity:1;stroke:none;stroke-width:1;stroke-linecap:round;stroke-linejoin:miter;stroke-miterlimit:4;stroke-dasharray:none;stroke-opacity:1;display:inline" id="rect3270" width="1" height="1" x="-22" y="1" transform="scale(-1,1)"/></g></svg>