<svg xmlns="http://www.w3.org/2000/svg" xmlns:cc="http://web.resource.org/cc/" xmlns:svg="http://www.w3.org/2000/svg" xmlns:xlink="http://www.w3.org/1999/xlink" id="svg1325" width="22" height="22" version="1.0"><defs id="defs1327"><linearGradient id="linearGradient2783"><stop style="stop-color:#729fcf;stop-opacity:1" id="stop2785" offset="0"/><stop style="stop-color:#3465a4;stop-opacity:1" id="stop2787" offset="1"/></linearGradient><linearGradient id="linearGradient2270"><stop style="stop-color:#fff;stop-opacity:1" id="stop2272" offset="0"/><stop style="stop-color:#fff;stop-opacity:0" id="stop2274" offset="1"/></linearGradient><linearGradient id="linearGradient2262"><stop style="stop-color:#d3d7cf;stop-opacity:1" id="stop2264" offset="0"/><stop style="stop-color:#d3d7cf;stop-opacity:0" id="stop2266" offset="1"/></linearGradient><linearGradient id="linearGradient2252"><stop style="stop-color:#888a85;stop-opacity:1" id="stop2254" offset="0"/><stop style="stop-color:#888a85;stop-opacity:0" id="stop2256" offset="1"/></linearGradient><linearGradient id="linearGradient2258" x1="31.875" x2="47.438" y1="17.438" y2="17.438" gradientTransform="matrix(0.5,0,0,0.551724,-0.75,-9.155174)" gradientUnits="userSpaceOnUse" xlink:href="#linearGradient2252"/><linearGradient id="linearGradient2268" x1="31.873" x2="46.705" y1="20.688" y2="20.688" gradientTransform="matrix(0.5,0,0,0.551724,-0.75,-9.155174)" gradientUnits="userSpaceOnUse" xlink:href="#linearGradient2262"/><linearGradient id="linearGradient1341" x1="23.997" x2="45.754" y1="18.375" y2="18.375" gradientTransform="matrix(0.488889,0,0,0.518519,-0.211111,-8.092598)" gradientUnits="userSpaceOnUse" xlink:href="#linearGradient2270"/><radialGradient id="radialGradient2218" cx="3.624" cy="2.005" r="23" fx="3.624" fy="2.005" gradientTransform="matrix(0,0.583851,-0.795567,0,3.155684,-0.557896)" gradientUnits="userSpaceOnUse" xlink:href="#linearGradient2270"/><radialGradient id="radialGradient1901" cx="34.375" cy="38.266" r="12.044" fx="34.375" fy="38.266" gradientTransform="matrix(1.53143,0,0,1.53143,-18.26764,-20.33562)" gradientUnits="userSpaceOnUse" xlink:href="#linearGradient2783"/></defs><metadata id="metadata1330"/><g id="layer1"><rect style="opacity:1;fill:url(#linearGradient2268);fill-opacity:1;stroke:url(#linearGradient2258);stroke-width:.99999928;stroke-linecap:butt;stroke-linejoin:round;stroke-miterlimit:4;stroke-dasharray:none;stroke-dashoffset:0;stroke-opacity:1" id="rect1333" width="23" height="16" x=".5" y=".5"/><rect style="opacity:.4;fill:none;fill-opacity:1;stroke:url(#linearGradient1341);stroke-width:1;stroke-linecap:butt;stroke-linejoin:round;stroke-miterlimit:4;stroke-dasharray:none;stroke-dashoffset:0;stroke-opacity:1" id="rect2210" width="22" height="14" x="1.5" y="1.5"/><rect style="opacity:1;fill:none;fill-opacity:1;stroke:url(#radialGradient2218);stroke-width:1.00000036;stroke-linecap:butt;stroke-linejoin:round;stroke-miterlimit:4;stroke-dasharray:none;stroke-dashoffset:0;stroke-opacity:1" id="rect2216" width="22" height="14" x="1.5" y="1.5"/><path style="fill:url(#radialGradient1901);fill-opacity:1;stroke:#204a87;stroke-width:1.29567552;stroke-linecap:round;stroke-linejoin:miter;stroke-miterlimit:4;stroke-dasharray:none;stroke-dashoffset:1.20000057;stroke-opacity:1" id="path1895" d="M 44.724505 32.620426 A 11.667262 11.667262 0 1 1 21.389981,32.620426 A 11.667262 11.667262 0 1 1 44.724505 32.620426 z" transform="matrix(0.771799,0,0,0.771799,-13.0151,-12.67796)"/><path style="fill:none;fill-opacity:1;stroke:#fff;stroke-width:1.45812297;stroke-linecap:round;stroke-linejoin:miter;stroke-miterlimit:4;stroke-dasharray:none;stroke-dashoffset:1.20000057;stroke-opacity:1" id="path2803" d="M 44.724505 32.620426 A 11.667262 11.667262 0 1 1 21.389981,32.620426 A 11.667262 11.667262 0 1 1 44.724505 32.620426 z" transform="matrix(0.685814,0,0,0.685813,-10.17268,-9.873092)"/><path style="font-size:28px;font-style:normal;font-weight:400;fill:#fff;fill-opacity:1;stroke:none;stroke-width:1px;stroke-linecap:butt;stroke-linejoin:miter;stroke-opacity:1;font-family:Bitstream Vera Sans" id="text1891" d="M 14,17 L 15,17 L 15,18 L 10,18 L 10,17 L 11,17 L 11,12 L 10,12 L 10,11 L 14,11"/><path style="fill:#fff;fill-opacity:1;stroke:none;stroke-width:2;stroke-linecap:round;stroke-linejoin:miter;stroke-miterlimit:4;stroke-dasharray:none;stroke-dashoffset:1.20000057;stroke-opacity:1" id="path2782" d="M 31 22.5 A 1.5 1.5 0 1 1 28,22.5 A 1.5 1.5 0 1 1 31 22.5 z" transform="translate(-17.00002,-14)"/></g></svg>